<?xml version="1.0" encoding="UTF-8" standalone="no"?>
<!-- Created with Inkscape (http://www.inkscape.org/) -->

<svg
   xmlns:dc="http://purl.org/dc/elements/1.1/"
   xmlns:cc="http://creativecommons.org/ns#"
   xmlns:rdf="http://www.w3.org/1999/02/22-rdf-syntax-ns#"
   xmlns:svg="http://www.w3.org/2000/svg"
   xmlns="http://www.w3.org/2000/svg"
   xmlns:sodipodi="http://sodipodi.sourceforge.net/DTD/sodipodi-0.dtd"
   xmlns:inkscape="http://www.inkscape.org/namespaces/inkscape"
   width="145.00253mm"
   height="96.402359mm"
   viewBox="0 0 145.00253 96.402357"
   version="1.1"
   id="svg8"
   inkscape:version="0.92.4 (835b6bb, 2019-11-20)"
   sodipodi:docname="aml-s805x-ac-flat.svg">
  <defs
     id="defs2" />
  <sodipodi:namedview
     id="base"
     pagecolor="#ffffff"
     bordercolor="#666666"
     borderopacity="1.0"
     inkscape:pageopacity="0.0"
     inkscape:pageshadow="2"
     inkscape:zoom="1.8827772"
     inkscape:cx="275.19244"
     inkscape:cy="182.17769"
     inkscape:document-units="mm"
     inkscape:current-layer="layer4"
     showgrid="false"
     inkscape:window-width="1577"
     inkscape:window-height="868"
     inkscape:window-x="0"
     inkscape:window-y="0"
     inkscape:window-maximized="0" />
  <metadata
     id="metadata5">
    <rdf:RDF>
      <cc:Work
         rdf:about="">
        <dc:format>image/svg+xml</dc:format>
        <dc:type
           rdf:resource="http://purl.org/dc/dcmitype/StillImage" />
        <dc:title></dc:title>
      </cc:Work>
    </rdf:RDF>
  </metadata>
  <g
     inkscape:label="back"
     inkscape:groupmode="layer"
     id="layer1"
     transform="translate(0.01796611,-200.9592)"
     style="display:inline">
    <path
       style="opacity:1;fill:none;fill-opacity:1;fill-rule:nonzero;stroke:#000000;stroke-width:0.10000001;stroke-linecap:round;stroke-linejoin:round;stroke-miterlimit:4;stroke-dasharray:none;stroke-dashoffset:0;stroke-opacity:1"
       d="m -0.05,283.95 h 56.299998 v 13.2 H -0.05 Z"
       id="rect815"
       inkscape:connector-curvature="0" />
    <path
       style="opacity:1;fill:none;fill-opacity:1;fill-rule:nonzero;stroke:#000000;stroke-width:0.09999998;stroke-linecap:round;stroke-linejoin:round;stroke-miterlimit:4;stroke-dasharray:none;stroke-dashoffset:0;stroke-opacity:1"
       d="m 6.55,289.85 h 8.1 v 3.1 h -8.1 z"
       id="rect817"
       inkscape:connector-curvature="0" />
    <path
       style="opacity:1;fill:none;fill-opacity:1;fill-rule:nonzero;stroke:#000000;stroke-width:0.09999999;stroke-linecap:round;stroke-linejoin:round;stroke-miterlimit:4;stroke-dasharray:none;stroke-dashoffset:0;stroke-opacity:1"
       d="M 15.699529,285.15 H 31.89953 v 11.3 H 15.699529 Z"
       id="rect819"
       inkscape:connector-curvature="0" />
    <path
       style="fill:none;fill-rule:evenodd;stroke:#000000;stroke-width:0.09999996;stroke-linecap:butt;stroke-linejoin:miter;stroke-miterlimit:4;stroke-dasharray:none;stroke-opacity:1"
       d="m 33.75,286.14 h 15.1 v 4.33527 L 46.232666,291.9 H 36.367333 L 33.75,290.47527 Z"
       id="path825"
       inkscape:connector-curvature="0"
       sodipodi:nodetypes="ccccccc" />
  </g>
  <g
     inkscape:groupmode="layer"
     id="layer2"
     inkscape:label="front"
     style="display:inline"
     transform="translate(0.01796611,82.940793)">
    <path
       style="opacity:1;fill:none;fill-opacity:1;fill-rule:nonzero;stroke:#000000;stroke-width:0.10000001;stroke-linecap:round;stroke-linejoin:round;stroke-miterlimit:4;stroke-dasharray:none;stroke-dashoffset:0;stroke-opacity:1"
       d="M -0.05,0.05000007 H 56.249998 V 13.25 H -0.05 Z"
       id="rect815-3"
       inkscape:connector-curvature="0" />
    <path
       style="opacity:1;vector-effect:none;fill:none;fill-opacity:1;fill-rule:nonzero;stroke:#000000;stroke-width:0.1;stroke-linecap:round;stroke-linejoin:round;stroke-miterlimit:4;stroke-dasharray:none;stroke-dashoffset:0;stroke-opacity:1"
       d="m 15.15,1.3500002 h 14.4 v 6.9999999 h -14.4 z"
       id="rect1586"
       inkscape:connector-curvature="0" />
    <path
       style="display:inline;opacity:1;fill:none;fill-opacity:1;fill-rule:nonzero;stroke:#000000;stroke-width:0.1;stroke-linecap:round;stroke-linejoin:round;stroke-miterlimit:4;stroke-dasharray:none;stroke-dashoffset:0;stroke-opacity:1"
       d="m 33.05,1.3500002 h 14.4 v 6.9999999 h -14.4 z"
       id="rect1586-5"
       inkscape:connector-curvature="0" />
    <path
       style="opacity:1;vector-effect:none;fill:none;fill-opacity:1;fill-rule:nonzero;stroke:#000000;stroke-width:0.10000002;stroke-linecap:round;stroke-linejoin:round;stroke-miterlimit:4;stroke-dasharray:none;stroke-dashoffset:0;stroke-opacity:1"
       d="m 10.2,5.3499999 c 0.8033,0 1.45,0.6467 1.45,1.4500001 0,0.8033 -0.6467,1.45 -1.45,1.45 C 9.3967,8.25 8.75,7.6033 8.75,6.8 8.75,5.9966999 9.3967,5.3499999 10.2,5.3499999 Z"
       id="rect1623"
       inkscape:connector-curvature="0" />
  </g>
  <g
     inkscape:groupmode="layer"
     id="layer3"
     inkscape:label="console"
     style="display:inline"
     transform="translate(-0.08203389,82.940793)">
    <path
       style="display:inline;opacity:1;fill:none;fill-opacity:1;fill-rule:nonzero;stroke:#000000;stroke-width:0.10000001;stroke-linecap:round;stroke-linejoin:round;stroke-miterlimit:4;stroke-dasharray:none;stroke-dashoffset:0;stroke-opacity:1"
       d="M 0.04952899,0.05000007 H 67.749529 V 13.25 H 0.04952899 Z"
       id="rect815-3-3"
       inkscape:connector-curvature="0" />
    <path
       style="opacity:1;vector-effect:none;fill:none;fill-opacity:1;fill-rule:nonzero;stroke:#000000;stroke-width:0.1;stroke-linecap:round;stroke-linejoin:round;stroke-miterlimit:4;stroke-dasharray:none;stroke-dashoffset:0;stroke-opacity:1"
       d="m 25.35,3.2500043 h 8.099999 V 6.3500044 H 25.35 Z"
       id="rect2339"
       inkscape:connector-curvature="0" />
  </g>
  <g
     inkscape:groupmode="layer"
     id="layer4"
     inkscape:label="sides"
     transform="translate(-0.0820339,82.940793)"
     style="display:inline">
    <path
       d="m 75.034561,-24.290785 h -1.999999 v -2.246162 -2.246149 h 1.999999 v -4.192309 h -1.999999 v -4.492305 h 1.999999 v -4.19231 h -1.999999 v -4.49231 h 1.999999 v -4.19231 h -1.999999 v -4.49231 h 1.999999 v -4.192301 h -1.999999 v -4.49231 h 1.999999 v -4.19231 h -1.999999 v -4.49231 h 1.999999 v -4.1923 h -1.999999 v -2.24616 -2.24615 h 1.999999 v -2 h 2.33667 2.33667 v 2 h 4.37333 v -2 h 4.67333 v 2 h 4.37333 v -2 h 4.673343 v 2 h 4.373326 v -2 h 4.67334 v 2 h 4.37334 v -2 h 4.67333 v 2 h 4.37333 v -2 h 4.67334 v 2 h 4.37333 v -2 h 4.67333 v 2 h 4.37334 v -2 h 2.33666 2.33667 v 2 h 2 v 2.24615 2.24616 h -2 v 4.1923 h 2 v 4.49231 h -2 v 4.19231 h 2 v 4.49231 h -2 v 4.192301 h 2 v 4.49231 h -2 v 4.19231 h 2 v 4.49231 h -2 v 4.19231 h 2 v 4.492305 h -2 v 4.192309 h 2 v 2.246149 2.246162 h -2 v 1.999998 h -2.33667 -2.33666 v -1.999998 h -4.37334 v 1.999998 h -4.67333 v -1.999998 h -4.37333 v 1.999998 h -4.67334 v -1.999998 h -4.37333 v 1.999998 h -4.67333 v -1.999998 h -4.37334 v 1.999998 h -4.67333 v -1.999998 h -4.373336 v 1.999998 h -4.673343 v -1.999998 h -4.37333 v 1.999998 h -4.67333 v -1.999998 h -4.37333 v 1.999998 h -2.33667 -2.33667 v -1.999998"
       id="box-longside1"
       style="display:inline;fill:none;stroke:#0000ff;stroke-width:0.1;stroke-linecap:butt;stroke-linejoin:miter"
       inkscape:connector-curvature="0" />
    <path
       d="m 2.1320379,-24.290796 h -2 v -2.246151 -2.246149 h 2 v -4.192309 h -2 v -4.49231 h 2 v -4.192313 h -2 v -4.492299 h 2 v -4.19231 h -2 v -4.49231 h 2 v -4.19231 h -2 v -4.49231 h 2 v -4.1923 h -2 v -4.492309 h 2 v -4.19231 h -2 v -2.246153 -2.246154 h 2 v -2 H 4.468698 6.8053676 v 2 h 4.3733314 v -2 h 4.673339 v 2 h 4.37333 v -2 h 4.67333 v 2 h 4.373341 v -2 h 4.673331 v 2 h 4.373329 v -2 h 4.67333 v 2 h 4.373341 v -2 h 4.67333 v 2 h 4.373329 v -2 h 4.673338 v 2 h 4.373327 v -2 h 2.336671 2.33666 v 2 h 2.000001 v 2.246154 2.246153 h -2.000001 v 4.19231 h 2.000001 v 4.492309 h -2.000001 v 4.1923 h 2.000001 v 4.49231 h -2.000001 v 4.19231 h 2.000001 v 4.49231 h -2.000001 v 4.19231 h 2.000001 v 4.492299 h -2.000001 v 4.192313 h 2.000001 v 4.49231 h -2.000001 v 4.192309 h 2.000001 v 2.246149 2.246151 h -2.000001 v 1.999999 h -2.33666 -2.336671 v -1.999999 h -4.373327 v 1.999999 h -4.673338 v -1.999999 H 52.0387 v 1.999999 h -4.67333 v -1.999999 h -4.373341 v 1.999999 h -4.67333 v -1.999999 H 33.94537 v 1.999999 h -4.673331 v -1.999999 h -4.373341 v 1.999999 h -4.67333 v -1.999999 h -4.37333 v 1.999999 h -4.673339 v -1.999999 H 6.8053676 v 1.999999 H 4.468698 2.1320379 v -1.999999"
       id="box-longside2"
       style="display:inline;fill:none;stroke:#0000ff;stroke-width:0.1;stroke-linecap:butt;stroke-linejoin:miter"
       inkscape:connector-curvature="0" />
    <path
       d="m 145.03457,-6.2967272 h -2 -2.18667 -2.18666 v 2.0000013 h -4.67334 v -2.0000013 h -4.37333 v 2.0000013 h -4.67333 v -2.0000013 h -4.37333 v 2.0000013 h -4.67334 v -2.0000013 h -4.37333 v 2.0000013 h -4.67333 v -2.0000013 h -4.37333 v 2.0000013 h -4.673327 v -2.0000013 h -4.37333 v 2.0000013 h -4.673341 v -2.0000013 h -4.373329 v 2.0000013 h -4.673331 v -2.0000013 h -2.18667 -2.18667 -2.000001 v -2.2999991 -2.2999987 h 2.000001 v -4.300011 h -2.000001 v -2.299999 -2.300002 h 2.000001 2.18667 2.18667 v -1.999999 h 4.673331 v 1.999999 h 4.373329 v -1.999999 h 4.673341 v 1.999999 h 4.37333 v -1.999999 h 4.673327 v 1.999999 h 4.37333 v -1.999999 h 4.67333 v 1.999999 h 4.37333 v -1.999999 h 4.67334 v 1.999999 h 4.37333 v -1.999999 h 4.67333 v 1.999999 h 4.37333 v -1.999999 h 4.67334 v 1.999999 h 2.18666 2.18667 2 v 2.300002 2.299999 h -2 v 4.300011 h 2 v 2.2999987 2.2999991"
       id="box-endface1"
       style="display:inline;fill:none;stroke:#0000ff;stroke-width:0.1;stroke-linecap:butt;stroke-linejoin:miter"
       inkscape:connector-curvature="0" />
    <path
       d="m 0.1320339,-19.782484 h 2.000001 2.1866701 2.18666 v -2.000001 h 4.67334 v 2.000001 h 4.37333 v -2.000001 h 4.67333 v 2.000001 h 4.37333 v -2.000001 h 4.673342 v 2.000001 h 4.373332 v -2.000001 h 4.673336 v 2.000001 h 4.373337 v -2.000001 h 4.67333 v 2.000001 h 4.37333 v -2.000001 h 4.673341 v 2.000001 h 4.373329 v -2.000001 h 4.67333 v 2.000001 h 2.186671 2.18667 1.999998 v 2.299999 2.300002 h -1.999998 v 4.299998 h 1.999998 v 2.3000012 2.2999991 h -1.999998 -2.18667 -2.186671 v 2.0000013 h -4.67333 v -2.0000013 h -4.373329 v 2.0000013 h -4.673341 v -2.0000013 h -4.37333 v 2.0000013 h -4.67333 v -2.0000013 h -4.373337 v 2.0000013 h -4.673336 v -2.0000013 h -4.373332 v 2.0000013 h -4.673342 v -2.0000013 h -4.37333 v 2.0000013 h -4.67333 v -2.0000013 h -4.37333 v 2.0000013 H 6.505365 V -6.2824847 H 4.318705 2.1320349 0.1320339 v -2.2999991 -2.3000012 h 2.000001 v -4.299998 h -2.000001 v -2.300002 -2.299999"
       id="box-endface2"
       style="display:inline;fill:none;stroke:#0000ff;stroke-width:0.1;stroke-linecap:butt;stroke-linejoin:miter"
       inkscape:connector-curvature="0" />
    <path
       d="m 58.615651,11.411568 h -2.096148 -2.096161 v 1.999999 h -4.49231 v -1.999999 h -4.1923 v 1.999999 h -4.49231 v -1.999999 h -4.192309 v 1.999999 h -4.492311 v -1.999999 h -4.192307 v 1.999999 h -4.492306 v -1.999999 h -4.192307 v 1.999999 h -4.492308 v -1.999999 h -4.192309 v 1.999999 H 6.5079553 V 11.411568 H 4.4118044 2.3156529 V 9.2615665 7.1115677 H 0.3156539 V 2.5115694 h 1.999999 V 0.36156793 -1.7884309 h 2.0961515 2.0961509 v -2.0000013 h 4.4923097 v 2.0000013 h 4.192309 v -2.0000013 h 4.492308 v 2.0000013 h 4.192307 v -2.0000013 h 4.492306 v 2.0000013 h 4.192307 v -2.0000013 h 4.492311 v 2.0000013 h 4.192309 v -2.0000013 h 4.49231 v 2.0000013 h 4.1923 v -2.0000013 h 4.49231 v 2.0000013 h 2.096161 2.096148 V 0.36156793 2.5115694 h 2.000002 v 4.5999983 h -2.000002 v 2.1499988 2.1500015"
       id="box-lid"
       style="display:inline;fill:none;stroke:#0000ff;stroke-width:0.1;stroke-linecap:butt;stroke-linejoin:miter"
       inkscape:connector-curvature="0" />
    <path
       d="m 119.8182,11.411568 h -2.09615 -2.09616 v 1.999999 h -4.49231 v -1.999999 h -4.1923 v 1.999999 h -4.49231 v -1.999999 h -4.192311 v 1.999999 h -4.492308 v -1.999999 h -4.192307 v 1.999999 H 85.079737 V 11.411568 H 80.88743 v 1.999999 h -4.492308 v -1.999999 h -4.192309 v 1.999999 H 67.710505 V 11.411568 H 65.614351 63.518198 V 9.2615665 7.1115677 H 61.518199 V 2.5115642 h 1.999999 V 0.36156264 -1.7884362 h 2.096153 2.096154 v -2.0000013 h 4.492308 v 2.0000013 h 4.192309 v -2.0000013 h 4.492308 v 2.0000013 h 4.192307 v -2.0000013 h 4.492307 v 2.0000013 h 4.192307 v -2.0000013 h 4.492308 v 2.0000013 h 4.192311 v -2.0000013 h 4.49231 v 2.0000013 h 4.1923 v -2.0000013 h 4.49231 v 2.0000013 h 2.09616 2.09615 V 0.36156264 2.5115642 h 2 v 4.6000035 h -2 v 2.1499988 2.1500015"
       id="box-base"
       style="display:inline;fill:none;stroke:#0000ff;stroke-width:0.1;stroke-linecap:butt;stroke-linejoin:miter"
       inkscape:connector-curvature="0" />
  </g>
  <g
     inkscape:groupmode="layer"
     id="layer7"
     inkscape:label="side+console"
     style="display:inline"
     transform="translate(-0.0825049,-13.208841)">
    <path
       style="display:inline;opacity:1;vector-effect:none;fill:none;fill-opacity:1;fill-rule:nonzero;stroke:#000000;stroke-width:0.1;stroke-linecap:round;stroke-linejoin:round;stroke-miterlimit:4;stroke-dasharray:none;stroke-dashoffset:0;stroke-opacity:1"
       d="m 44.502236,87.718862 h -8.100002 v -3.099999 h 8.100002 z"
       id="rect2339-3"
       inkscape:connector-curvature="0" />
  </g>
  <g
     inkscape:groupmode="layer"
     id="layer6"
     inkscape:label="side+back"
     style="display:inline"
     transform="translate(-0.0825049,-13.208841)">
    <g
       style="display:inline"
       id="g4719"
       transform="translate(61.16867,73.626314)">
      <path
         inkscape:connector-curvature="0"
         id="rect817-2"
         d="m 8.9499992,26.634638 h 8.0999998 v 3.1 H 8.9499992 Z"
         style="display:inline;opacity:1;fill:none;fill-opacity:1;fill-rule:nonzero;stroke:#000000;stroke-width:0.09999999;stroke-linecap:round;stroke-linejoin:round;stroke-miterlimit:4;stroke-dasharray:none;stroke-dashoffset:0;stroke-opacity:1" />
      <path
         inkscape:connector-curvature="0"
         id="rect819-7"
         d="m 18.1,21.93489 h 16.199999 v 11.3 H 18.1 Z"
         style="display:inline;opacity:1;fill:none;fill-opacity:1;fill-rule:nonzero;stroke:#000000;stroke-width:0.09999999;stroke-linecap:round;stroke-linejoin:round;stroke-miterlimit:4;stroke-dasharray:none;stroke-dashoffset:0;stroke-opacity:1" />
      <path
         sodipodi:nodetypes="ccccccc"
         inkscape:connector-curvature="0"
         id="path825-0"
         d="m 36.15,22.92489 h 15.100001 v 4.33527 l -2.617335,1.42473 H 38.767332 L 36.15,27.26016 Z"
         style="display:inline;fill:none;fill-rule:evenodd;stroke:#000000;stroke-width:0.09999996;stroke-linecap:butt;stroke-linejoin:miter;stroke-miterlimit:4;stroke-dasharray:none;stroke-opacity:1" />
    </g>
  </g>
  <g
     inkscape:groupmode="layer"
     id="layer5"
     inkscape:label="side+front"
     style="display:inline"
     transform="translate(-0.0825049,-13.208841)">
    <g
       id="g4724"
       transform="translate(-0.0338771,92.311208)">
      <path
         inkscape:connector-curvature="0"
         id="rect1586-6"
         d="M 17.549999,3.3500002 H 31.949998 V 10.35 H 17.549999 Z"
         style="display:inline;opacity:1;vector-effect:none;fill:none;fill-opacity:1;fill-rule:nonzero;stroke:#000000;stroke-width:0.1;stroke-linecap:round;stroke-linejoin:round;stroke-miterlimit:4;stroke-dasharray:none;stroke-dashoffset:0;stroke-opacity:1" />
      <path
         inkscape:connector-curvature="0"
         id="rect1586-5-2"
         d="M 35.449999,3.3500002 H 49.85 V 10.35 H 35.449999 Z"
         style="display:inline;opacity:1;fill:none;fill-opacity:1;fill-rule:nonzero;stroke:#000000;stroke-width:0.1;stroke-linecap:round;stroke-linejoin:round;stroke-miterlimit:4;stroke-dasharray:none;stroke-dashoffset:0;stroke-opacity:1" />
      <path
         inkscape:connector-curvature="0"
         id="rect1623-9"
         d="m 12.599999,7.3499999 c 0.8033,0 1.45,0.6467001 1.45,1.4500003 0,0.8033 -0.6467,1.4499998 -1.45,1.4499998 -0.8033,0 -1.45,-0.6466998 -1.45,-1.4499998 0,-0.8033002 0.6467,-1.4500003 1.45,-1.4500003 z"
         style="display:inline;opacity:1;vector-effect:none;fill:none;fill-opacity:1;fill-rule:nonzero;stroke:#000000;stroke-width:0.10000002;stroke-linecap:round;stroke-linejoin:round;stroke-miterlimit:4;stroke-dasharray:none;stroke-dashoffset:0;stroke-opacity:1" />
    </g>
  </g>
</svg>
