<?xml version="1.0" encoding="UTF-8" standalone="no"?>
<!-- Created with Inkscape (http://www.inkscape.org/) -->

<svg
   xmlns:dc="http://purl.org/dc/elements/1.1/"
   xmlns:cc="http://creativecommons.org/ns#"
   xmlns:rdf="http://www.w3.org/1999/02/22-rdf-syntax-ns#"
   xmlns:svg="http://www.w3.org/2000/svg"
   xmlns="http://www.w3.org/2000/svg"
   xmlns:sodipodi="http://sodipodi.sourceforge.net/DTD/sodipodi-0.dtd"
   xmlns:inkscape="http://www.inkscape.org/namespaces/inkscape"
   sodipodi:docname="vim3.svg"
   inkscape:version="0.92.4 (835b6bb, 2019-11-20)"
   id="svg8"
   version="1.1"
   viewBox="0 0 174.99504 99.257936"
   height="99.257935mm"
   width="174.99504mm">
  <defs
     id="defs2" />
  <sodipodi:namedview
     id="base"
     pagecolor="#ffffff"
     bordercolor="#666666"
     borderopacity="1.0"
     inkscape:pageopacity="0.0"
     inkscape:pageshadow="2"
     inkscape:zoom="1.7795623"
     inkscape:cx="330.69929"
     inkscape:cy="187.57405"
     inkscape:document-units="mm"
     inkscape:current-layer="layer2"
     showgrid="false"
     inkscape:window-width="1598"
     inkscape:window-height="868"
     inkscape:window-x="0"
     inkscape:window-y="0"
     inkscape:window-maximized="1" />
  <metadata
     id="metadata5">
    <rdf:RDF>
      <cc:Work
         rdf:about="">
        <dc:format>image/svg+xml</dc:format>
        <dc:type
           rdf:resource="http://purl.org/dc/dcmitype/StillImage" />
        <dc:title />
      </cc:Work>
    </rdf:RDF>
  </metadata>
  <g
     inkscape:groupmode="layer"
     id="layer3"
     inkscape:label="box"
     transform="translate(2.099997,83.752381)"
     style="display:inline">
    <path
       inkscape:connector-curvature="0"
       d="m -0.049997,13.455555 h 1.8928571 1.8928572 v 2 h 4.0857143 v -2 h 3.7857144 v 2 h 4.085714 v -2 h 3.785714 v 2 h 4.085714 v -2 h 3.785714 v 2 h 4.085714 v -2 h 3.785714 v 2 h 4.085715 v -2 h 3.785714 v 2 h 4.085714 v -2 h 3.785714 v 2 h 4.085714 v -2 h 3.785714 v 2 h 4.085715 v -2 h 3.785714 v 2 h 4.085714 v -2 h 3.785714 v 2 h 4.085714 v -2 H 80.557143 82.45 v -1.29 -1.29 h 2 v -2.88 h -2 v -2.58 h 2 v -2.88 h -2 v -1.29 -1.29 h -1.892857 -1.892857 v -2 h -4.085714 v 2 h -3.785714 v -2 h -4.085714 v 2 H 62.92143 v -2 h -4.085715 v 2 h -3.785714 v -2 h -4.085714 v 2 h -3.785714 v -2 h -4.085714 v 2 h -3.785714 v -2 H 35.22143 v 2 h -3.785714 v -2 h -4.085714 v 2 h -3.785714 v -2 h -4.085714 v 2 H 15.69286 v -2 h -4.085714 v 2 H 7.8214316 v -2 H 3.7357173 v 2 H 1.8428601 -0.049997 v 1.29 1.29 h -2 v 2.88 h 2 v 2.58 h -2 v 2.88 h 2 v 1.29 1.29"
       id="box-lid"
       style="fill:none;stroke:#0000ff;stroke-width:0.1;stroke-linecap:butt;stroke-linejoin:miter" />
    <path
       inkscape:connector-curvature="0"
       d="m 0.16051962,-5.3579335 v 2 H 2.2033767 4.2462339 v -2 h 3.7857143 v 2 h 4.0857148 v -2 h 3.785714 v 2 h 4.085714 v -2 h 3.785714 v 2 h 4.085714 v -2 h 3.785714 v 2 h 4.085714 v -2 h 3.785715 v 2 h 4.085714 v -2 h 3.785714 v 2 h 4.085714 v -2 h 3.785714 v 2 h 4.085714 v -2 h 3.785715 v 2 h 4.085714 v -2 h 3.785714 v 2 h 4.085714 v -2 h 3.785714 v 2 h 2.042857 2.042857 v -2 h 2 v -1.755882 -1.755883 h -2 v -3.2117645 h 2 v -3.511765 h -2 v -3.211765 h 2 v -3.511765 h -2 v -3.211765 h 2 v -3.511765 h -2 v -3.211765 h 2 v -3.511765 h -2 v -3.211764 h 2 v -3.511765 h -2 v -3.211765 h 2 v -3.511765 h -2 v -3.211765 h 2 v -3.511765 h -2 v -3.211764 h 2 v -1.755883 -1.755882 h -2 v -2 H 80.91766 78.874803 v 2 h -3.785714 v -2 h -4.085714 v 2 h -3.785714 v -2 h -4.085714 v 2 h -3.785715 v -2 h -4.085714 v 2 h -3.785714 v -2 H 47.38909 v 2 h -3.785714 v -2 h -4.085714 v 2 h -3.785715 v -2 h -4.085714 v 2 h -3.785714 v -2 h -4.085714 v 2 h -3.785714 v -2 h -4.085714 v 2 h -3.785714 v -2 H 8.0319482 v 2 H 4.2462339 v -2 H 2.2033767 0.16051962 v 2 H -1.8394804 v 1.755882 1.755883 h 2.00000002 v 3.211764 H -1.8394804 v 3.511765 h 2.00000002 v 3.211765 H -1.8394804 v 3.511765 h 2.00000002 v 3.211765 H -1.8394804 v 3.511765 h 2.00000002 v 3.211764 H -1.8394804 v 3.511765 h 2.00000002 v 3.211765 H -1.8394804 v 3.511765 h 2.00000002 v 3.211765 H -1.8394804 v 3.511765 h 2.00000002 v 3.211765 H -1.8394804 v 3.511765 h 2.00000002 v 3.2117645 H -1.8394804 v 1.755883 1.755882 h 2.00000002"
       id="box-longside1"
       style="fill:none;stroke:#0000ff;stroke-width:0.1;stroke-linecap:butt;stroke-linejoin:miter" />
    <path
       inkscape:connector-curvature="0"
       d="m 88.134525,13.455555 h 1.892857 1.892857 v 2 h 4.085715 v -2 h 3.785713 v 2 h 4.085723 v -2 h 3.78571 v 2 h 4.08572 v -2 h 3.78571 v 2 h 4.08572 v -2 h 3.78571 v 2 h 4.08571 v -2 h 3.78572 v 2 h 4.08571 v -2 h 3.78572 v 2 h 4.08571 v -2 h 3.78571 v 2 h 4.08572 v -2 h 3.78571 v 2 h 4.08572 v -2 h 3.78571 v 2 h 4.08571 v -2 h 1.89286 1.89286 v -1.29 -1.29 h 2 V 7.9955555 h -2 v -2.58 h 2 v -2.88 h -2 v -1.29 -1.29000003 h -1.89286 -1.89286 V -2.0444445 h -4.08571 v 1.99999997 h -3.78571 V -2.0444445 h -4.08572 v 1.99999997 h -3.78571 V -2.0444445 h -4.08572 v 1.99999997 h -3.78571 V -2.0444445 h -4.08571 v 1.99999997 H 135.3631 V -2.0444445 h -4.08571 v 1.99999997 h -3.78572 V -2.0444445 h -4.08571 v 1.99999997 h -3.78571 V -2.0444445 h -4.08572 v 1.99999997 h -3.78571 V -2.0444445 h -4.08572 v 1.99999997 h -3.78571 V -2.0444445 h -4.085723 v 1.99999997 H 96.005954 V -2.0444445 h -4.085715 v 1.99999997 h -1.892857 -1.892857 v 1.29000003 1.29 h -2 v 2.88 h 2 v 2.58 h -2 v 2.8799995 h 2 v 1.29 1.29"
       id="box-base"
       style="fill:none;stroke:#0000ff;stroke-width:0.1;stroke-linecap:butt;stroke-linejoin:miter" />
    <path
       inkscape:connector-curvature="0"
       d="m 88.045043,-5.352378 v 2 h 2.042857 2.042857 v -2 h 3.785714 v 2 h 4.085719 v -2 h 3.78572 v 2 h 4.08571 v -2 h 3.78571 v 2 h 4.08572 v -2 h 3.78571 v 2 h 4.08572 v -2 h 3.78571 v 2 h 4.08572 v -2 h 3.78571 v 2 h 4.08571 v -2 h 3.78572 v 2 h 4.08571 v -2 h 3.78572 v 2 h 4.08571 v -2 h 3.78571 v 2 h 4.08572 v -2 h 3.78571 v 2 h 2.04286 2.04286 v -2 h 2 v -1.75588 -1.75588 h -2 v -3.211771 h 2 v -3.51176 h -2 v -3.21177 h 2 v -3.51176 h -2 v -3.21177 h 2 v -3.51176 h -2 v -3.21177 h 2 v -3.51176 h -2 v -3.21177 h 2 v -3.51176 h -2 v -3.21177 h 2 v -3.51176 h -2 v -3.21177 h 2 v -3.51176 h -2 v -3.21177 h 2 v -1.75588 -1.75588 h -2 v -2 h -2.04286 -2.04286 v 2 h -3.78571 v -2 h -4.08572 v 2 h -3.78571 v -2 h -4.08571 v 2 h -3.78572 v -2 h -4.08571 v 2 h -3.78572 v -2 h -4.08571 v 2 h -3.78571 v -2 h -4.08572 v 2 h -3.78571 v -2 h -4.08572 v 2 h -3.78571 v -2 h -4.08572 v 2 h -3.78571 v -2 h -4.08571 v 2 h -3.78572 v -2 h -4.085719 v 2 h -3.785714 v -2 H 90.0879 88.045043 v 2 h -2 v 1.75588 1.75588 h 2 v 3.21177 h -2 v 3.51176 h 2 v 3.21177 h -2 v 3.51176 h 2 v 3.21177 h -2 v 3.51176 h 2 v 3.21177 h -2 v 3.51176 h 2 v 3.21177 h -2 v 3.51176 h 2 v 3.21177 h -2 v 3.51176 h 2 v 3.21177 h -2 v 3.51176 h 2 v 3.211771 h -2 v 1.75588 1.75588 h 2"
       id="box-longside2"
       style="fill:none;stroke:#0000ff;stroke-width:0.1;stroke-linecap:butt;stroke-linejoin:miter" />
    <path
       inkscape:connector-curvature="0"
       d="m 61.449409,-67.902381 h 2 1.605882 1.605883 v 2 h 3.511764 v -2 h 3.211765 v 2 h 3.511763 v -2 h 3.21176 v 2 h 3.51177 v -2 h 3.21176 v 2 h 3.51177 v -2 h 3.21176 v 2 h 3.51177 v -2 h 3.211764 v 2 h 3.51177 v -2 h 3.21176 v 2 h 3.51177 v -2 h 3.21176 v 2 h 3.51177 v -2 h 1.60588 1.60588 2 v -1.44 -1.44 h -2 v -2.58 h 2 v -2.88 h -2 v -2.58 h 2 v -1.44 -1.44 h -2 -1.60588 -1.60588 v -2 h -3.51177 v 2 h -3.21176 v -2 h -3.51177 v 2 h -3.21176 v -2 h -3.51177 v 2 h -3.211764 v -2 h -3.51177 v 2 h -3.21176 v -2 h -3.51177 v 2 h -3.21176 v -2 h -3.51177 v 2 h -3.21176 v -2 h -3.511763 v 2 h -3.211765 v -2 h -3.511764 v 2 h -1.605883 -1.605882 -2 v 1.44 1.44 h 2 v 2.58 h -2 v 2.88 h 2 v 2.58 h -2 v 1.44 1.44"
       id="box-endface2"
       style="fill:none;stroke:#0000ff;stroke-width:0.1;stroke-linecap:butt;stroke-linejoin:miter" />
    <path
       inkscape:connector-curvature="0"
       d="m -1.8394804,-67.896823 h 2.00000006 1.60588194 1.605883 v 2 h 3.511764 v -2 h 3.2117654 v 2 h 3.511764 v -2 h 3.211759 v 2 h 3.51177 v -2 h 3.21176 v 2 h 3.51177 v -2 h 3.21176 v 2 h 3.51177 v -2 h 3.21176 v 2 h 3.51177 v -2 h 3.21176 v 2 h 3.51177 v -2 h 3.21176 v 2 h 3.51177 v -2 h 1.60588 1.60588 2 v -1.44 -1.44 h -2 v -2.58 h 2 v -2.88 h -2 v -2.58 h 2 v -1.44 -1.44 h -2 -1.60588 -1.60588 v -2 h -3.51177 v 2 h -3.21176 v -2 h -3.51177 v 2 h -3.21176 v -2 h -3.51177 v 2 h -3.21176 v -2 h -3.51177 v 2 h -3.21176 v -2 h -3.51177 v 2 h -3.21176 v -2 h -3.51177 v 2 h -3.211759 v -2 h -3.511764 v 2 H 6.8840486 v -2 h -3.511764 v 2 H 1.7664016 0.16051966 -1.8394804 v 1.44 1.44 h 2.00000006 v 2.58 H -1.8394804 v 2.88 h 2.00000006 v 2.58 H -1.8394804 v 1.44 1.44"
       id="box-endface1"
       style="fill:none;stroke:#0000ff;stroke-width:0.1;stroke-linecap:butt;stroke-linejoin:miter" />
  </g>
  <g
     inkscape:groupmode="layer"
     id="layer7"
     inkscape:label="console">
    <path
       style="display:inline;opacity:1;fill:none;fill-opacity:1;fill-rule:nonzero;stroke:#000000;stroke-width:0.09999999;stroke-linecap:round;stroke-linejoin:round;stroke-miterlimit:4;stroke-dasharray:none;stroke-dashoffset:0;stroke-opacity:1"
       d="m 86.6,4.949935 h 8.100001 V 7.7499346 H 86.6 Z"
       id="rect817-7"
       inkscape:connector-curvature="0" />
  </g>
  <g
     inkscape:groupmode="layer"
     id="layer6"
     inkscape:label="engraving">
    <g
       aria-label="P
"
       transform="rotate(180,0.2499305,0)"
       style="font-style:normal;font-weight:normal;font-size:4.11520433px;line-height:125%;font-family:Sans;letter-spacing:0px;word-spacing:0px;display:inline;fill:#000000;fill-opacity:1;stroke:none;stroke-width:0.26458332px;stroke-linecap:butt;stroke-linejoin:miter;stroke-opacity:1"
       id="text13697">
      <path
         d="m -45.094194,-6.9286214 v 1.1272606 h 0.510382 q 0.283322,0 0.438044,-0.1466845 0.154722,-0.1466846 0.154722,-0.4179505 0,-0.2692565 -0.154722,-0.415941 -0.154722,-0.1466846 -0.438044,-0.1466846 z m -0.405894,-0.3335566 h 0.916276 q 0.504354,0 0.761554,0.229069 0.25921,0.2270596 0.25921,0.6671132 0,0.4440724 -0.25921,0.671132 -0.2572,0.2270596 -0.761554,0.2270596 h -0.510382 v 1.2056263 h -0.405894 z"
         style="stroke-width:0.26458332px"
         id="path13753"
         inkscape:connector-curvature="0" />
    </g>
    <g
       aria-label="F
"
       transform="rotate(180,0.2499305,0)"
       style="font-style:normal;font-weight:normal;font-size:4.11520433px;line-height:125%;font-family:Sans;letter-spacing:0px;word-spacing:0px;display:inline;fill:#000000;fill-opacity:1;stroke:none;stroke-width:0.26458332px;stroke-linecap:butt;stroke-linejoin:miter;stroke-opacity:1"
       id="text13705">
      <path
         d="m -35.395294,-7.262178 h 1.724045 v 0.3415941 H -34.9894 v 0.884126 h 1.189551 v 0.3415941 H -34.9894 v 1.4326859 h -0.405894 z"
         style="stroke-width:0.26458332px"
         id="path13756"
         inkscape:connector-curvature="0" />
    </g>
    <g
       aria-label="R
"
       transform="rotate(180,0.2499305,0)"
       style="font-style:normal;font-weight:normal;font-size:4.11520433px;line-height:125%;font-family:Sans;letter-spacing:0px;word-spacing:0px;display:inline;fill:#000000;fill-opacity:1;stroke:none;stroke-width:0.26458332px;stroke-linecap:butt;stroke-linejoin:miter;stroke-opacity:1"
       id="text13711">
      <path
         d="m -24.499406,-5.6687419 q 0.13061,0.044206 0.253182,0.1888814 0.124581,0.1446752 0.249162,0.3978567 l 0.411923,0.8198259 h -0.436035 l -0.383791,-0.7695915 q -0.148694,-0.3014065 -0.28935,-0.399866 -0.138647,-0.098459 -0.379773,-0.098459 h -0.442063 v 1.267917 h -0.405894 V -7.262178 h 0.916276 q 0.514401,0 0.767582,0.2150034 0.253182,0.2150033 0.253182,0.6490288 0,0.2833222 -0.132619,0.4701942 -0.13061,0.1868721 -0.381782,0.2592097 z m -1.016745,-1.2598795 v 1.0649699 h 0.510382 q 0.293369,0 0.442063,-0.1346283 0.150703,-0.1366376 0.150703,-0.399866 0,-0.2632284 -0.150703,-0.3958473 -0.148694,-0.1346283 -0.442063,-0.1346283 z"
         style="stroke-width:0.26458332px"
         id="path13759"
         inkscape:connector-curvature="0" />
    </g>
    <g
       aria-label="ttyS0"
       style="font-style:normal;font-weight:normal;font-size:3.78483558px;line-height:125%;font-family:Sans;letter-spacing:0px;word-spacing:0px;fill:#000000;fill-opacity:1;stroke:none;stroke-width:0.26458332px;stroke-linecap:butt;stroke-linejoin:miter;stroke-opacity:1"
       id="text14080">
      <path
         d="m 86.222107,9.213872 v 0.5876845 h 0.700417 V 10.06583 h -0.700417 v 1.123623 q 0,0.253185 0.06838,0.325259 0.07023,0.07207 0.282754,0.07207 h 0.349284 v 0.284601 H 86.57324 q -0.393638,0 -0.543331,-0.145997 -0.149694,-0.147845 -0.149694,-0.535938 V 10.06583 H 85.630727 V 9.8015565 h 0.249488 V 9.213872 Z"
         style="stroke-width:0.26458332px"
         id="path14082"
         inkscape:connector-curvature="0" />
      <path
         d="m 87.707951,9.213872 v 0.5876845 h 0.700416 V 10.06583 h -0.700416 v 1.123623 q 0,0.253185 0.06838,0.325259 0.07023,0.07207 0.282754,0.07207 h 0.349284 v 0.284601 h -0.349284 q -0.393637,0 -0.543331,-0.145997 -0.149693,-0.147845 -0.149693,-0.535938 V 10.06583 H 87.11657 V 9.8015565 h 0.249489 V 9.213872 Z"
         style="stroke-width:0.26458332px"
         id="path14084"
         inkscape:connector-curvature="0" />
      <path
         d="m 89.718645,12.063587 q -0.144149,0.369613 -0.280906,0.482345 -0.136757,0.112732 -0.365917,0.112732 h -0.271665 v -0.284602 h 0.199591 q 0.140453,0 0.218071,-0.06653 0.07762,-0.06653 0.17187,-0.314171 l 0.06099,-0.155238 -0.837174,-2.0365665 h 0.360373 l 0.646823,1.6189045 0.646822,-1.6189045 h 0.360373 z"
         style="stroke-width:0.26458332px"
         id="path14086"
         inkscape:connector-curvature="0" />
      <path
         d="m 92.766103,9.2027837 v 0.3640686 q -0.212528,-0.1016435 -0.40103,-0.1515412 -0.188503,-0.049898 -0.364069,-0.049898 -0.30493,0 -0.471256,0.1182761 -0.164478,0.1182761 -0.164478,0.3363477 0,0.1829581 0.109036,0.2772101 0.110884,0.0924 0.417662,0.149693 l 0.225464,0.0462 q 0.417663,0.07947 0.615406,0.280905 0.199591,0.199591 0.199591,0.535939 0,0.40103 -0.269818,0.608013 -0.267969,0.206983 -0.787275,0.206983 -0.195895,0 -0.417663,-0.04435 -0.219919,-0.04435 -0.456472,-0.131213 V 11.36502 q 0.227312,0.127516 0.445384,0.192199 0.218072,0.06468 0.428751,0.06468 0.319715,0 0.493433,-0.125669 0.173718,-0.125668 0.173718,-0.358524 0,-0.203287 -0.125668,-0.317867 -0.123821,-0.11458 -0.408422,-0.17187 l -0.227312,-0.04435 q -0.417663,-0.08316 -0.604317,-0.260577 -0.186655,-0.177414 -0.186655,-0.4934331 0,-0.3659167 0.256881,-0.576596 0.258729,-0.2106793 0.711505,-0.2106793 0.194047,0 0.395486,0.035113 0.201439,0.035113 0.412118,0.1053397 z"
         style="stroke-width:0.26458332px"
         id="path14088"
         inkscape:connector-curvature="0" />
      <path
         d="m 94.346198,9.3580211 q -0.288298,0 -0.434295,0.2846019 -0.144149,0.2827538 -0.144149,0.851958 0,0.567355 0.144149,0.851957 0.145997,0.282754 0.434295,0.282754 0.290146,0 0.434295,-0.282754 0.145997,-0.284602 0.145997,-0.851957 0,-0.5692042 -0.145997,-0.851958 -0.144149,-0.2846019 -0.434295,-0.2846019 z m 0,-0.2956903 q 0.463864,0 0.707808,0.3677648 0.245793,0.3659167 0.245793,1.0644854 0,0.69672 -0.245793,1.064485 -0.243944,0.365916 -0.707808,0.365916 -0.463864,0 -0.709657,-0.365916 -0.243944,-0.367765 -0.243944,-1.064485 0,-0.6985687 0.243944,-1.0644854 0.245793,-0.3677648 0.709657,-0.3677648 z"
         style="stroke-width:0.26458332px"
         id="path14090"
         inkscape:connector-curvature="0" />
    </g>
  </g>
  <g
     inkscape:label="panel-contour"
     inkscape:groupmode="layer"
     id="layer1"
     transform="translate(-19.017003,-87.904779)"
     style="display:none">
    <path
       id="path2511"
       d="m 21.167,171.70716 h 82.4 v 13.4 h -82.4 z"
       style="opacity:1;vector-effect:none;fill:none;fill-opacity:1;fill-rule:nonzero;stroke:#000000;stroke-width:0.09999997;stroke-linecap:round;stroke-linejoin:round;stroke-miterlimit:4;stroke-dasharray:none;stroke-dashoffset:0;stroke-opacity:1"
       inkscape:connector-curvature="0" />
  </g>
  <g
     inkscape:groupmode="layer"
     id="layer2"
     inkscape:label="panel-holes"
     style="display:inline"
     transform="translate(2.099997,83.752381)">
    <path
       style="display:inline;opacity:1;vector-effect:none;fill:none;fill-opacity:1;fill-rule:nonzero;stroke:#000000;stroke-width:0.09999999;stroke-linecap:round;stroke-linejoin:round;stroke-miterlimit:4;stroke-dasharray:none;stroke-dashoffset:0;stroke-opacity:1"
       d="M 0.68000001,1.54999 H 13.88 V 7.3499898 H 0.68000001 Z"
       id="rect1586"
       inkscape:connector-curvature="0" />
    <path
       style="display:inline;fill:none;fill-rule:evenodd;stroke:#000000;stroke-width:0.09999998;stroke-linecap:butt;stroke-linejoin:miter;stroke-miterlimit:4;stroke-dasharray:none;stroke-opacity:1"
       d="m 31.05,1.35 h 15.100001 v 4.4406401 l -2.617335,1.45936 H 33.667333 L 31.05,5.7906401 Z"
       id="path825"
       inkscape:connector-curvature="0"
       sodipodi:nodetypes="ccccccc" />
    <path
       style="display:inline;opacity:1;fill:none;fill-opacity:1;fill-rule:nonzero;stroke:#000000;stroke-width:0.09999999;stroke-linecap:round;stroke-linejoin:round;stroke-miterlimit:4;stroke-dasharray:none;stroke-dashoffset:0;stroke-opacity:1"
       d="m 48.55,1.14999 h 14.400001 v 11.3 H 48.55 Z"
       id="rect819"
       inkscape:connector-curvature="0" />
    <path
       inkscape:connector-curvature="0"
       id="path2133"
       d="M 68.350003,1.5495517 H 81.550004 V 7.3495515 H 68.350003 Z"
       style="display:inline;opacity:1;vector-effect:none;fill:none;fill-opacity:1;fill-rule:nonzero;stroke:#000000;stroke-width:0.09999999;stroke-linecap:round;stroke-linejoin:round;stroke-miterlimit:4;stroke-dasharray:none;stroke-dashoffset:0;stroke-opacity:1" />
    <path
       style="display:inline;opacity:1;vector-effect:none;fill:none;fill-opacity:1;fill-rule:nonzero;stroke:#000000;stroke-width:0.10000002;stroke-linecap:round;stroke-linejoin:round;stroke-miterlimit:4;stroke-dasharray:none;stroke-dashoffset:0;stroke-opacity:1"
       d="m 20.1347,4.4999899 h 6.530601 c 0.711724,0 1.284698,0.5719602 1.284698,1.2824201 v 0.6351601 c 0,0.7104599 -0.572974,1.2824201 -1.284698,1.2824201 H 20.1347 C 19.422976,7.6999902 18.85,7.12803 18.85,6.4175701 V 5.78241 c 0,-0.7104599 0.572976,-1.2824201 1.2847,-1.2824201 z"
       id="rect2135"
       inkscape:connector-curvature="0" />
    <path
       style="display:inline;opacity:1;vector-effect:none;fill:none;fill-opacity:1;fill-rule:nonzero;stroke:#000000;stroke-width:0.1;stroke-linecap:round;stroke-linejoin:round;stroke-miterlimit:4;stroke-dasharray:none;stroke-dashoffset:0;stroke-opacity:1"
       d="m 32.750001,8.5500001 h 12.4 V 10.35 h -12.4 z"
       id="rect2152"
       inkscape:connector-curvature="0" />
  </g>
  <g
     inkscape:groupmode="layer"
     id="layer4"
     inkscape:label="side-holes"
     style="display:inline"
     transform="translate(0,-0.842066)">
    <path
       style="opacity:1;vector-effect:none;fill:none;fill-opacity:1;fill-rule:nonzero;stroke:#000000;stroke-width:0.10000001;stroke-linecap:round;stroke-linejoin:round;stroke-miterlimit:4;stroke-dasharray:none;stroke-dashoffset:0;stroke-opacity:1"
       d="m 23.911,9.3920013 h 3.3 v 1.7999997 h -3.3 z"
       id="rect7429"
       inkscape:connector-curvature="0" />
    <path
       style="opacity:1;vector-effect:none;fill:none;fill-opacity:1;fill-rule:nonzero;stroke:#000000;stroke-width:0.10000001;stroke-linecap:round;stroke-linejoin:round;stroke-miterlimit:4;stroke-dasharray:none;stroke-dashoffset:0;stroke-opacity:1"
       d="M 33.510999,9.3920013 H 36.811 v 1.7999997 h -3.300001 z"
       id="rect7431"
       inkscape:connector-curvature="0" />
    <path
       style="opacity:1;vector-effect:none;fill:none;fill-opacity:1;fill-rule:nonzero;stroke:#000000;stroke-width:0.10000001;stroke-linecap:round;stroke-linejoin:round;stroke-miterlimit:4;stroke-dasharray:none;stroke-dashoffset:0;stroke-opacity:1"
       d="m 43.311,9.3920013 h 3.3 v 1.7999997 h -3.3 z"
       id="rect7433"
       inkscape:connector-curvature="0" />
  </g>
  <g
     inkscape:groupmode="layer"
     id="layer5"
     inkscape:label="side-contour"
     style="display:none"
     transform="translate(0,-0.842066)">
    <rect
       style="opacity:1;vector-effect:none;fill:none;fill-opacity:1;fill-rule:nonzero;stroke:#000000;stroke-width:0.09999999;stroke-linecap:round;stroke-linejoin:round;stroke-miterlimit:4;stroke-dasharray:none;stroke-dashoffset:0;stroke-opacity:1"
       id="rect7425"
       width="56.900002"
       height="13.4"
       x="2.3105166"
       y="3.0920644" />
  </g>
</svg>
