<?xml version="1.0" encoding="UTF-8" standalone="no"?>
<svg
   xmlns:dc="http://purl.org/dc/elements/1.1/"
   xmlns:cc="http://creativecommons.org/ns#"
   xmlns:rdf="http://www.w3.org/1999/02/22-rdf-syntax-ns#"
   xmlns:svg="http://www.w3.org/2000/svg"
   xmlns="http://www.w3.org/2000/svg"
   xmlns:sodipodi="http://sodipodi.sourceforge.net/DTD/sodipodi-0.dtd"
   xmlns:inkscape="http://www.inkscape.org/namespaces/inkscape"
   width="297mm"
   height="210mm"
   viewBox="0 0 297 210"
   version="1.1"
   id="svg8"
   inkscape:version="1.0 (4035a4fb49, 2020-05-01)"
   sodipodi:docname="up-board1.svg">
  <defs
     id="defs2" />
  <sodipodi:namedview
     id="base"
     pagecolor="#ffffff"
     bordercolor="#666666"
     borderopacity="1.0"
     inkscape:pageopacity="0.0"
     inkscape:pageshadow="2"
     inkscape:zoom="2.6297235"
     inkscape:cx="369.44694"
     inkscape:cy="237.45913"
     inkscape:document-units="mm"
     inkscape:current-layer="layer5"
     inkscape:document-rotation="0"
     showgrid="true"
     inkscape:pagecheckerboard="false"
     borderlayer="true"
     objecttolerance="1"
     guidetolerance="1"
     inkscape:window-width="2558"
     inkscape:window-height="1408"
     inkscape:window-x="0"
     inkscape:window-y="0"
     inkscape:window-maximized="1"
     gridtolerance="1">
    <inkscape:grid
       dotted="true"
       color="#0000ff"
       opacity="0.05882353"
       empcolor="#0000ff"
       empopacity="0.10196078"
       type="xygrid"
       id="grid833"
       snapvisiblegridlinesonly="false" />
  </sodipodi:namedview>
  <metadata
     id="metadata5">
    <rdf:RDF>
      <cc:Work
         rdf:about="">
        <dc:format>image/svg+xml</dc:format>
        <dc:type
           rdf:resource="http://purl.org/dc/dcmitype/StillImage" />
        <dc:title />
      </cc:Work>
    </rdf:RDF>
  </metadata>
  <g
     inkscape:groupmode="layer"
     id="layer5"
     inkscape:label="engrave"
     style="display:inline">
    <g
       id="text14080-2"
       style="font-style:normal;font-weight:normal;font-size:3.78484px;line-height:125%;font-family:Sans;letter-spacing:0px;word-spacing:0px;display:inline;fill:none;fill-opacity:1;stroke:#000000;stroke-width:0.1;stroke-linecap:butt;stroke-linejoin:miter;stroke-miterlimit:4;stroke-dasharray:none;stroke-opacity:1"
       aria-label="ttyS0"
       transform="translate(-10.22305,90.85161)">
      <path
         d="m 86.003906,9.3378906 v 0.4628906 a 0.12307788,0.12307788 0 0 1 -0.123047,0.1230469 h -0.126953 v 0.019531 h 0.126953 a 0.12307788,0.12307788 0 0 1 0.123047,0.1230469 v 1.123047 c 0,0.243305 0.04997,0.386668 0.111328,0.447266 0.06145,0.05993 0.209973,0.111328 0.457032,0.111328 h 0.226562 v -0.03906 h -0.226562 c -0.154577,0 -0.27889,-0.01481 -0.369141,-0.107422 a 0.12307788,0.12307788 0 0 1 -0.002,-0.002 c -0.09566,-0.100825 -0.101563,-0.230297 -0.101563,-0.410156 v -1.123047 a 0.12307788,0.12307788 0 0 1 0.123047,-0.1230469 h 0.576172 V 9.9238281 H 86.222656 A 0.12307788,0.12307788 0 0 1 86.099609,9.8007812 V 9.3378906 Z"
         style="fill:none;stroke:#000000;stroke-width:0.1;stroke-miterlimit:4;stroke-dasharray:none;stroke-opacity:1"
         id="path14082-7" />
      <path
         d="m 87.488281,9.3378906 v 0.4628906 a 0.12307723,0.12307723 0 0 1 -0.123047,0.1230469 h -0.125 v 0.019531 h 0.125 a 0.12307723,0.12307723 0 0 1 0.123047,0.1230469 v 1.123047 c 0,0.242685 0.05136,0.386104 0.113281,0.447266 0.06145,0.05993 0.209974,0.111328 0.457032,0.111328 h 0.226562 v -0.03906 h -0.226562 c -0.154577,0 -0.27965,-0.01358 -0.371094,-0.107422 a 0.12307723,0.12307723 0 0 1 -0.002,-0.002 C 87.58984,11.49874 87.583937,11.369268 87.583937,11.189409 v -1.123047 a 0.12307723,0.12307723 0 0 1 0.123047,-0.1230469 h 0.578125 V 9.9238281 H 87.707031 A 0.12307723,0.12307723 0 0 1 87.583984,9.8007812 V 9.3378906 Z"
         style="fill:none;stroke:#000000;stroke-width:0.1;stroke-miterlimit:4;stroke-dasharray:none;stroke-opacity:1"
         id="path14084-0" />
      <path
         d="m 88.804688,9.9296875 0.765624,1.8593745 a 0.12896163,0.12896163 0 0 1 0.002,0.0957 l -0.06055,0.15625 c -0.06538,0.171608 -0.118381,0.285621 -0.208985,0.363281 -0.08002,0.06859 -0.187059,0.09961 -0.302734,0.09961 h -0.07031 v 0.02539 h 0.142578 c 0.132418,0 0.219674,-0.02966 0.283203,-0.08203 0.05505,-0.04538 0.149526,-0.192094 0.242187,-0.429688 a 0.12896163,0.12896163 0 0 1 0.002,-0.002 l 0.835938,-2.0859375 h -0.08008 l -0.615235,1.5371095 a 0.12896163,0.12896163 0 0 1 -0.238281,0 L 88.886719,9.9296875 Z"
         style="fill:none;stroke:#000000;stroke-width:0.1;stroke-miterlimit:4;stroke-dasharray:none;stroke-opacity:1"
         id="path2064" />
      <path
         d="m 88.804688,9.9296875 0.765624,1.8593745 a 0.12896163,0.12896163 0 0 1 0.002,0.0957 l -0.06055,0.15625 c -0.06538,0.171608 -0.118381,0.285621 -0.208985,0.363281 -0.08002,0.06859 -0.187059,0.09961 -0.302734,0.09961 h -0.07031 v 0.02539 h 0.142578 c 0.132418,0 0.219674,-0.02966 0.283203,-0.08203 0.05505,-0.04538 0.149526,-0.192094 0.242187,-0.429688 a 0.12896163,0.12896163 0 0 1 0.002,-0.002 l 0.835938,-2.0859375 h -0.08008 l -0.615235,1.5371095 a 0.12896163,0.12896163 0 0 1 -0.238281,0 L 88.886719,9.9296875 Z"
         style="fill:none;stroke:#000000;stroke-width:0.1;stroke-miterlimit:4;stroke-dasharray:none;stroke-opacity:1"
         id="path14086-9" />
      <path
         d="m 91.958984,9.2070312 c -0.279325,0 -0.48088,0.063561 -0.621093,0.1777344 -0.139387,0.1143174 -0.203125,0.2543545 -0.203125,0.4648438 0,0.1818056 0.04921,0.2999246 0.142578,0.3886716 0.09354,0.08891 0.267873,0.170216 0.53125,0.222657 l 0.226562,0.04492 a 0.14470664,0.14470664 0 0 1 0.002,0 c 0.204074,0.04108 0.362374,0.10332 0.476563,0.208985 0.114155,0.10478 0.173828,0.258153 0.173828,0.423828 0,0.191287 -0.0847,0.366334 -0.234375,0.474609 -0.150489,0.108865 -0.346327,0.152344 -0.578125,0.152344 -0.155104,0 -0.311234,-0.02359 -0.46875,-0.07031 -0.08575,-0.02543 -0.173005,-0.07302 -0.259766,-0.111328 v 0.05664 c 0.116207,0.03877 0.231264,0.07576 0.339844,0.09766 0.140127,0.02802 0.269416,0.04297 0.388672,0.04297 0.326967,0 0.556311,-0.06735 0.699219,-0.177734 0.143649,-0.110197 0.21289,-0.259135 0.21289,-0.494141 0,-0.195772 -0.05182,-0.329165 -0.15625,-0.433594 a 0.14470664,0.14470664 0 0 1 -0.002,0 c -0.102948,-0.104869 -0.278678,-0.19069 -0.539062,-0.240234 a 0.14470664,0.14470664 0 0 1 -0.002,0 l -0.222657,-0.04687 h -0.002 c -0.213543,-0.03998 -0.36691,-0.08506 -0.480469,-0.179688 a 0.14470664,0.14470664 0 0 1 -0.002,-0.002 c -0.10764,-0.09305 -0.160156,-0.2357341 -0.160156,-0.3867185 0,-0.1814832 0.08079,-0.3497039 0.224609,-0.453125 0.144979,-0.1030958 0.334236,-0.1464844 0.556641,-0.1464844 0.13148,0 0.264737,0.018779 0.400391,0.054687 0.06958,0.018418 0.145821,0.054511 0.21875,0.082031 v -0.042969 c -0.09873,-0.029091 -0.19855,-0.05776 -0.292969,-0.074219 -0.126694,-0.022084 -0.248535,-0.033203 -0.369141,-0.033203 z"
         style="fill:none;stroke:#000000;stroke-width:0.1;stroke-miterlimit:4;stroke-dasharray:none;stroke-opacity:1"
         id="path14088-3" />
      <path
         d="m 94.345703,9.2089844 c -0.270575,0 -0.445771,0.093013 -0.585937,0.3027344 -0.138713,0.2080688 -0.220704,0.5338622 -0.220704,0.9824222 10e-7,0.447281 0.08168,0.772831 0.220704,0.982421 0.140085,0.207826 0.316329,0.302735 0.585937,0.302735 0.270184,0 0.447214,-0.09465 0.585938,-0.302735 0.139779,-0.209145 0.220703,-0.53488 0.220703,-0.982421 0,-0.448819 -0.07928,-0.7747982 -0.21875,-0.9824222 a 0.14702445,0.14702445 0 0 1 -0.002,0 C 94.792976,9.3026717 94.616278,9.2089844 94.345703,9.2089844 Z m 0,0.00195 c 0.241779,0 0.452162,0.1396751 0.566406,0.3652344 0.115442,0.2245399 0.160157,0.5271852 0.160157,0.9179692 0,0.390466 -0.04448,0.692475 -0.160157,0.917968 -0.114418,0.224437 -0.324993,0.363282 -0.566406,0.363282 -0.240488,0 -0.449199,-0.138116 -0.564453,-0.361329 a 0.14702445,0.14702445 0 0 1 0,-0.002 c -0.113783,-0.224649 -0.160156,-0.527183 -0.160156,-0.917968 0,-0.391979 0.04604,-0.6941197 0.160156,-0.9179692 0.115085,-0.2243413 0.323597,-0.3652344 0.564453,-0.3652344 z"
         style="fill:none;stroke:#000000;stroke-width:0.1;stroke-miterlimit:4;stroke-dasharray:none;stroke-opacity:1"
         id="path14090-6" />
    </g>
    <g
       id="text13697"
       style="font-style:normal;font-weight:normal;font-size:4.1152px;line-height:125%;font-family:Sans;letter-spacing:0px;word-spacing:0px;display:inline;fill:none;fill-opacity:1;stroke:#000000;stroke-width:0.065;stroke-linecap:butt;stroke-linejoin:miter;stroke-miterlimit:4;stroke-dasharray:none;stroke-opacity:1"
       transform="translate(117.3159,142.47776)"
       aria-label="P ">
      <path
         d="m -45.345703,-7.1074219 v 2.6914063 h 0.09766 V -5.46875 a 0.1549861,0.1549861 0 0 1 0.154297,-0.1542969 h 0.509766 c 0.313133,0 0.524576,-0.069532 0.658203,-0.1875 a 0.1549861,0.1549861 0 0 1 0.002,-0.00195 c 0.135572,-0.1187566 0.207031,-0.2870327 0.207031,-0.5527344 0,-0.2627452 -0.07164,-0.4321867 -0.207031,-0.5507812 a 0.1549861,0.1549861 0 0 1 -0.002,-0.00195 c -0.133721,-0.1190952 -0.345259,-0.1894531 -0.658203,-0.1894531 z m 0.240234,0.025391 a 0.1549861,0.1549861 0 0 1 0.01172,0 h 0.509766 c 0.215516,0 0.40762,0.057331 0.544922,0.1875 0.136979,0.1298637 0.203125,0.3192297 0.203124,0.5292968 0,0.2111805 -0.06591,0.4011635 -0.203124,0.53125 -0.137302,0.130169 -0.329406,0.1874999 -0.544922,0.1875 h -0.509766 a 0.1549861,0.1549861 0 0 1 -0.154297,-0.1542968 v -1.1269532 a 0.1549861,0.1549861 0 0 1 0.142577,-0.1542968 z"
         style="fill:none;stroke:#000000;stroke-width:0.065;stroke-miterlimit:4;stroke-dasharray:none;stroke-opacity:1"
         id="path13753" />
    </g>
    <g
       id="text13711"
       style="font-style:normal;font-weight:normal;font-size:4.1152px;line-height:125%;font-family:Sans;letter-spacing:0px;word-spacing:0px;display:inline;fill:none;fill-opacity:1;stroke:#000000;stroke-width:0.065;stroke-linecap:butt;stroke-linejoin:miter;stroke-miterlimit:4;stroke-dasharray:none;stroke-opacity:1"
       transform="translate(97.742717,135.67372)"
       aria-label="R ">
      <path
         d="m -25.767578,-7.1074219 v 2.6914063 h 0.09766 v -1.1132813 a 0.15416592,0.15416592 0 0 1 0.154297,-0.1542969 h 0.441406 c 0.179544,10e-8 0.339593,0.036113 0.466797,0.125 a 0.15416592,0.15416592 0 0 1 0.06445,-0.2578124 c 0.140213,-0.040381 0.233189,-0.1053041 0.298828,-0.1992188 a 0.15416592,0.15416592 0 0 1 0.002,-0.00195 c 0.06708,-0.094521 0.103516,-0.2161351 0.103516,-0.3808594 0,-0.2591194 -0.06912,-0.420766 -0.199219,-0.53125 -0.129483,-0.1099581 -0.346463,-0.1777343 -0.667968,-0.1777344 z m 0.240234,0.025391 a 0.15416592,0.15416592 0 0 1 0.01172,0 h 0.509766 c 0.217528,0 0.406032,0.048652 0.542968,0.171875 0.138092,0.1215202 0.205079,0.3058543 0.205079,0.5117187 0,0.2058644 -0.06656,0.3898573 -0.203126,0.5136719 a 0.15416592,0.15416592 0 0 1 0,0.00195 c -0.136211,0.1233267 -0.32569,0.1738281 -0.544921,0.1738281 h -0.509766 a 0.15416592,0.15416592 0 0 1 -0.154297,-0.1542968 v -1.0644532 a 0.15416592,0.15416592 0 0 1 0.142578,-0.1542968 z m 0.933594,1.5351562 c 0.127543,0.094347 0.226848,0.2419737 0.328125,0.4472656 l 0.339844,0.6835938 h 0.08984 l -0.298828,-0.5976563 c -0.07908,-0.1607174 -0.15776,-0.283067 -0.228515,-0.3652343 a 0.15416592,0.15416592 0 0 1 0,-0.00195 c -0.0685,-0.080857 -0.131343,-0.1222792 -0.185547,-0.140625 a 0.15416592,0.15416592 0 0 1 -0.04492,-0.025391 z"
         style="fill:none;stroke:#000000;stroke-width:0.065;stroke-miterlimit:4;stroke-dasharray:none;stroke-opacity:1"
         id="path13759" />
    </g>
    <g
       aria-label="5V/4A"
       id="text2109"
       style="font-weight:bold;font-size:3.52777px;line-height:125%;font-family:sans-serif;-inkscape-font-specification:'sans-serif Bold';text-align:center;letter-spacing:0px;word-spacing:0px;text-anchor:middle;fill:none;stroke:#000000;stroke-width:0.065;stroke-linecap:butt;stroke-linejoin:miter;stroke-miterlimit:4;stroke-dasharray:none;stroke-opacity:1"
       transform="translate(-0.52916667)">
      <path
         d="m 79.150391,123.00391 -0.06445,1.05273 h 0.257812 c 0.03768,-0.0331 0.07281,-0.0697 0.117188,-0.0918 a 0.15583142,0.15583142 0 0 1 -0.212891,-0.15429 l 0.03906,-0.61328 a 0.15583142,0.15583142 0 0 1 0.15625,-0.14649 h 0.863282 v -0.0469 z m 0.691406,0.81836 c -0.145582,0 -0.245532,0.0372 -0.333985,0.11523 a 0.15583142,0.15583142 0 0 1 -0.02344,0.0156 c 0.07363,-0.0326 0.153973,-0.0527 0.236328,-0.0527 0.153836,0 0.300524,0.0576 0.398438,0.16797 0.09663,0.10809 0.142578,0.25319 0.142578,0.4082 0,0.1689 -0.04369,0.32484 -0.148438,0.4375 -3.71e-4,4e-4 -0.0016,-4e-4 -0.002,0 -3.88e-4,4.2e-4 3.9e-4,0.002 0,0.002 -0.100728,0.10759 -0.247767,0.16406 -0.40039,0.16406 -0.122356,0 -0.240289,-0.0316 -0.335938,-0.10156 -0.05939,-0.0435 -0.08066,-0.1206 -0.115234,-0.1875 l -0.201172,0.0176 c 0.03687,0.0848 0.08353,0.15745 0.154297,0.21094 0.114013,0.0846 0.272189,0.13281 0.492187,0.13281 0.250415,0 0.423799,-0.065 0.550781,-0.18554 0.129303,-0.12285 0.191407,-0.27486 0.191407,-0.5 0,-0.21826 -0.05464,-0.36749 -0.16211,-0.47852 a 0.15583142,0.15583142 0 0 1 -0.002,0 c -0.107126,-0.11159 -0.242668,-0.16601 -0.441406,-0.16601 z"
         style="stroke-width:0.065;stroke-miterlimit:4;stroke-dasharray:none"
         id="path2111" />
      <path
         d="m 80.947266,123 0.783203,2.12109 h 0.304687 L 82.814453,123 h -0.195312 l -0.464844,1.44922 -0.08594,0.30664 -0.03711,0.14453 a 0.15158245,0.15158245 0 0 1 -0.292969,0.002 c -0.05353,-0.20272 -0.09523,-0.35209 -0.125,-0.44922 v -0.002 L 81.146484,123 Z"
         style="stroke-width:0.065;stroke-miterlimit:4;stroke-dasharray:none"
         id="path2113" />
      <path
         d="m 83.728516,122.87891 -0.4375,2.30273 h 0.08789 l 0.433594,-2.30273 z"
         style="stroke-width:0.065;stroke-miterlimit:4;stroke-dasharray:none"
         id="path2115" />
      <path
         d="m 85.179688,122.96484 -0.970704,1.48633 v 0.21094 h 0.988282 a 0.11749724,0.11749724 0 0 1 0.117187,0.11719 v 0.37695 h 0.226563 v -0.37695 a 0.11749724,0.11749724 0 0 1 0.117187,-0.11719 h 0.207031 v -0.125 h -0.207031 a 0.11749724,0.11749724 0 0 1 -0.117187,-0.11719 v -1.45508 z m 0.04102,0.20313 a 0.11749724,0.11749724 0 0 1 0.107422,0.13086 c -0.0014,0.0126 -0.0052,0.0604 -0.0098,0.13281 -0.0032,0.0686 -0.0039,0.13253 -0.0039,0.19336 v 0.79492 a 0.11749724,0.11749724 0 0 1 -0.117187,0.11719 h -0.710938 a 0.11749724,0.11749724 0 0 1 -0.09766,-0.18164 l 0.5625,-0.85547 0.002,-0.002 c 0.07539,-0.11768 0.124901,-0.20681 0.150391,-0.26172 a 0.11749724,0.11749724 0 0 1 0.117187,-0.0684 z"
         style="stroke-width:0.065;stroke-miterlimit:4;stroke-dasharray:none"
         id="path2117" />
      <path
         d="m 87.082031,123 -0.77539,2.12109 h 0.183593 l 0.179688,-0.51757 a 0.15236381,0.15236381 0 0 1 0.144531,-0.10157 h 0.923828 a 0.15236381,0.15236381 0 0 1 0.144531,0.10157 l 0.179688,0.51757 h 0.177734 L 87.466797,123 Z m 0.189453,0.0684 a 0.15236381,0.15236381 0 0 1 0.148438,0.10742 l 0.03711,0.11914 a 0.15236381,0.15236381 0 0 1 0.002,0 l 0.07031,0.23242 0.240234,0.69532 A 0.15236381,0.15236381 0 0 1 87.625,124.42383 h -0.697266 a 0.15236381,0.15236381 0 0 1 -0.144531,-0.20117 c 0.181425,-0.52823 0.2845,-0.83297 0.294922,-0.86719 0.01523,-0.05 0.02965,-0.0958 0.04102,-0.13672 v -0.002 l 0.0098,-0.0352 a 0.15236381,0.15236381 0 0 1 0.142578,-0.11328 z"
         style="stroke-width:0.065;stroke-miterlimit:4;stroke-dasharray:none"
         id="path2119" />
    </g>
    <g
       aria-label="OTG"
       id="text2129"
       style="font-weight:bold;font-size:3.52777px;line-height:125%;font-family:sans-serif;-inkscape-font-specification:'sans-serif Bold';text-align:center;letter-spacing:0px;word-spacing:0px;text-anchor:middle;fill:none;stroke:#000000;stroke-width:0.065;stroke-linecap:butt;stroke-linejoin:miter;stroke-miterlimit:4;stroke-dasharray:none;stroke-opacity:1">
      <path
         d="m 115.02148,131.76953 c -0.35069,0 -0.59455,0.0946 -0.77343,0.27539 -0.17884,0.18075 -0.27344,0.42897 -0.27344,0.78516 0,0.35667 0.096,0.6111 0.27539,0.79883 0.18088,0.18662 0.42127,0.2832 0.76758,0.2832 0.22344,0 0.40956,-0.0457 0.5664,-0.13086 0.15694,-0.0862 0.27044,-0.20202 0.35547,-0.36523 0.085,-0.16324 0.13086,-0.35708 0.13086,-0.58594 0,-0.35096 -0.0944,-0.59734 -0.27539,-0.78125 -0.17916,-0.18298 -0.42323,-0.2793 -0.77344,-0.2793 z m 0,0.0449 c 0.26293,0 0.50026,0.097 0.65821,0.28711 0.1567,0.18795 0.22656,0.43941 0.22656,0.72852 0,0.30112 -0.0678,0.55884 -0.22656,0.75 -0.15754,0.19055 -0.39692,0.28711 -0.66211,0.28711 -0.26045,0 -0.49658,-0.0997 -0.65625,-0.29102 a 0.17849695,0.17849695 0 0 1 -0.002,-0.002 c -0.15848,-0.19305 -0.22852,-0.44952 -0.22852,-0.74414 0,-0.29185 0.0688,-0.54348 0.22656,-0.73047 0.15845,-0.18925 0.3977,-0.28516 0.66406,-0.28516 z"
         style="stroke-width:0.065;stroke-miterlimit:4;stroke-dasharray:none"
         id="path2131" />
      <path
         d="m 116.61523,131.81055 v 0.0293 h 0.60157 a 0.18162399,0.18162399 0 0 1 0.18164,0.18164 v 1.85157 h 0.14648 v -1.85157 a 0.18162399,0.18162399 0 0 1 0.18164,-0.18164 h 0.60352 v -0.0293 z"
         style="stroke-width:0.065;stroke-miterlimit:4;stroke-dasharray:none"
         id="path2133" />
      <path
         d="m 119.9375,131.75586 c -0.3716,0 -0.6275,0.0963 -0.80469,0.27344 a 0.16438083,0.16438083 0 0 1 -0.002,0 c -0.17707,0.17612 -0.27149,0.4304 -0.27148,0.80078 0,0.37304 0.094,0.63313 0.27148,0.8164 0.17691,0.1817 0.43038,0.2793 0.79492,0.2793 0.20847,0 0.40256,-0.0336 0.58984,-0.10156 0.16779,-0.0606 0.29237,-0.14642 0.39649,-0.24219 v -0.64258 h -0.73047 v 0.0469 h 0.42969 a 0.16438083,0.16438083 0 0 1 0.16406,0.16406 v 0.33594 a 0.16438083,0.16438083 0 0 1 -0.0547,0.12305 c -0.0912,0.0803 -0.20855,0.13782 -0.34765,0.18164 -0.13987,0.0427 -0.28595,0.0644 -0.4336,0.0644 -0.26662,0 -0.50516,-0.0926 -0.66601,-0.2793 a 0.16438083,0.16438083 0 0 1 0,-0.002 c -0.15959,-0.18835 -0.23047,-0.44416 -0.23047,-0.74414 0,-0.29485 0.0678,-0.54553 0.22461,-0.72852 0.15818,-0.18454 0.39798,-0.27344 0.66992,-0.27344 0.16884,0 0.3264,0.0354 0.46289,0.11524 a 0.16438083,0.16438083 0 0 1 0.002,0 c 0.0909,0.0532 0.14124,0.14975 0.20118,0.23633 l 0.17968,-0.0547 c -0.0604,-0.0949 -0.13226,-0.17514 -0.23047,-0.23242 -0.14854,-0.0866 -0.35077,-0.13672 -0.61523,-0.13672 z"
         style="stroke-width:0.065;stroke-miterlimit:4;stroke-dasharray:none"
         id="path2135" />
    </g>
    <g
       aria-label="HDMI"
       id="text2143"
       style="font-weight:bold;font-size:3.52777px;line-height:125%;font-family:sans-serif;-inkscape-font-specification:'sans-serif Bold';text-align:center;letter-spacing:0px;word-spacing:0px;text-anchor:middle;fill:none;stroke:#000000;stroke-width:0.065;stroke-linecap:butt;stroke-linejoin:miter;stroke-miterlimit:4;stroke-dasharray:none;stroke-opacity:1">
      <path
         d="m 94.896484,127.57422 v 2.08789 h 0.167969 v -0.87109 a 0.1702783,0.1702783 0 0 1 0.169922,-0.16993 h 1.058594 a 0.1702783,0.1702783 0 0 1 0.169922,0.16993 v 0.87109 h 0.167968 v -2.08789 h -0.167968 v 0.79687 a 0.1702783,0.1702783 0 0 1 -0.169922,0.16993 h -1.058594 a 0.1702783,0.1702783 0 0 1 -0.169922,-0.16993 v -0.79687 z"
         style="stroke-width:0.065;stroke-miterlimit:4;stroke-dasharray:none"
         id="path2145" />
      <path
         d="m 97.449219,127.57812 v 2.08008 h 0.808593 c 0.207046,0 0.38195,-0.0436 0.533204,-0.12695 0.150992,-0.0827 0.262476,-0.19881 0.345703,-0.35742 0.08384,-0.15892 0.128906,-0.34698 0.128906,-0.57422 0,-0.35082 -0.0952,-0.58686 -0.279297,-0.75586 a 0.17458945,0.17458945 0 0 1 -0.002,0 c -0.185107,-0.17086 -0.450822,-0.26562 -0.830078,-0.26563 z m 0.333984,0.0449 h 0.361328 c 0.282886,0 0.530038,0.0825 0.703125,0.25781 0.17454,0.17601 0.253907,0.42788 0.253906,0.71875 0,0.28754 -0.0738,0.53873 -0.234374,0.72656 -0.159879,0.187 -0.393548,0.28711 -0.652344,0.28711 h -0.431641 a 0.17458945,0.17458945 0 0 1 -0.173828,-0.17383 v -1.64257 a 0.17458945,0.17458945 0 0 1 0.173828,-0.17383 z"
         style="stroke-width:0.065;stroke-miterlimit:4;stroke-dasharray:none"
         id="path2147" />
      <path
         d="m 99.998047,127.57812 v 2.08008 h 0.105473 v -1.29687 c 0,-0.0759 -0.006,-0.25375 -0.0195,-0.51953 a 0.17300421,0.17300421 0 0 1 0.3379,-0.0566 l 0.18359,0.64257 0.39648,1.23047 h 0.11328 l 0.39844,-1.23242 c 0.0364,-0.11346 0.0944,-0.33049 0.17578,-0.63867 a 0.17300421,0.17300421 0 0 1 0.33985,0.0527 l -0.0156,0.42383 v 0.0977 1.29687 h 0.10352 v -2.08008 h -0.375 l -0.40821,1.30079 -0.10742,0.38671 a 0.17300421,0.17300421 0 0 1 -0.33398,-0.004 l -0.084,-0.32422 -0.0352,-0.125 -0.39453,-1.23438 z"
         style="stroke-width:0.065;stroke-miterlimit:4;stroke-dasharray:none"
         id="path2149" />
      <path
         d="m 102.91602,127.55273 v 2.13086 h 0.21093 v -2.13086 z"
         style="stroke-width:0.065;stroke-miterlimit:4;stroke-dasharray:none"
         id="path2151" />
    </g>
    <g
       aria-label="eth0"
       id="text2160"
       style="font-weight:bold;font-size:3.52777px;line-height:125%;font-family:sans-serif;-inkscape-font-specification:'sans-serif Bold';text-align:center;letter-spacing:0px;word-spacing:0px;text-anchor:middle;fill:none;stroke:#000000;stroke-width:0.065;stroke-linecap:butt;stroke-linejoin:miter;stroke-miterlimit:4;stroke-dasharray:none;stroke-opacity:1">
      <path
         d="m 10.273438,94.839844 c -0.263463,0 -0.4506809,0.07426 -0.585938,0.220703 -0.1351357,0.146313 -0.2070313,0.356957 -0.2070312,0.650391 0,0.30452 0.070824,0.525435 0.203125,0.671874 0.1326736,0.14584 0.3205222,0.21875 0.5839842,0.21875 0.331342,0 0.538483,-0.116436 0.667969,-0.349609 l -0.269531,-0.02148 c -0.02859,0.05898 -0.06486,0.110531 -0.117188,0.146484 -0.07132,0.049 -0.159908,0.07227 -0.257812,0.07227 -0.14543,0 -0.27328,-0.06239 -0.3554691,-0.173828 a 0.08509368,0.08509368 0 0 1 0,-0.002 C 9.853556,96.158932 9.8183594,96.004259 9.8183594,95.8125 a 0.08509368,0.08509368 0 0 1 0.085937,-0.08594 h 1.1015626 c -0.01065,-0.288198 -0.07129,-0.509288 -0.185547,-0.652343 -0.125037,-0.157567 -0.298298,-0.234375 -0.546874,-0.234375 z m -0.0059,0.132812 c 0.12671,0 0.240296,0.05085 0.31836,0.144532 0.07987,0.0944 0.11903,0.224981 0.128906,0.386718 a 0.08509368,0.08509368 0 0 1 -0.08399,0.0918 H 9.90625 a 0.08509368,0.08509368 0 0 1 -0.085937,-0.08789 c 0.00374,-0.154607 0.040261,-0.285205 0.1152344,-0.382812 a 0.08509368,0.08509368 0 0 1 0.00195,0 c 0.077538,-0.09907 0.1964806,-0.152344 0.3300776,-0.152344 z"
         style="stroke-width:0.065;stroke-miterlimit:4;stroke-dasharray:none"
         id="path2162" />
      <path
         d="m 11.748047,94.449219 -0.130859,0.373047 a 0.09846235,0.09846235 0 0 1 -0.09375,0.06445 h -0.16211 v 0.130859 H 11.5 a 0.09846235,0.09846235 0 0 1 0.09766,0.09766 v 1.09961 c 0,0.140413 0.03494,0.22874 0.08789,0.283203 0.05509,0.05509 0.135021,0.08789 0.259765,0.08789 0.1189,0 0.216625,-0.02081 0.310547,-0.04492 V 96.4375 c -0.02032,0.0025 -0.04548,0.0098 -0.06445,0.0098 -0.09227,0 -0.181007,-0.03138 -0.236328,-0.09961 a 0.09846235,0.09846235 0 0 1 -0.002,-0.002 c -0.05424,-0.0687 -0.07227,-0.157772 -0.07227,-0.261719 v -0.96875 a 0.09846235,0.09846235 0 0 1 0.09766,-0.09766 h 0.255859 v -0.130859 h -0.255859 a 0.09846235,0.09846235 0 0 1 -0.09766,-0.09766 v -0.339843 z"
         style="stroke-width:0.065;stroke-miterlimit:4;stroke-dasharray:none"
         id="path2164" />
      <path
         d="m 12.708984,94.158203 v 2.431641 h 0.357422 v -0.935547 c 0,-0.16704 0.03906,-0.3095 0.119141,-0.421875 0.08182,-0.114289 0.20033,-0.177735 0.335937,-0.177734 0.126328,0 0.234469,0.05054 0.300782,0.148437 0.06631,0.0979 0.09375,0.233539 0.09375,0.404297 v 0.982422 h 0.357422 v -1.119141 c -1e-6,-0.224801 -0.05005,-0.385579 -0.142579,-0.492187 -0.09292,-0.107064 -0.223899,-0.16211 -0.408203,-0.16211 -0.12696,0 -0.231041,0.02908 -0.318359,0.08594 -0.08606,0.05604 -0.162645,0.150349 -0.224609,0.285156 a 0.06329434,0.06329434 0 0 1 -0.05664,0.03516 h -0.0078 a 0.06329434,0.06329434 0 0 1 -0.0625,-0.06641 c 0.0091,-0.117697 0.01367,-0.239621 0.01367,-0.363281 v -0.634766 z"
         style="stroke-width:0.065;stroke-miterlimit:4;stroke-dasharray:none"
         id="path2166" />
      <path
         d="m 15.542969,94.328125 c -0.179582,0 -0.308021,0.03924 -0.400391,0.105469 -0.09305,0.06672 -0.168385,0.172091 -0.222656,0.335937 -0.05407,0.163237 -0.08594,0.387309 -0.08594,0.667969 10e-7,0.400783 0.07027,0.686539 0.185547,0.859375 0.11528,0.172836 0.2667,0.251953 0.509766,0.251953 0.246047,0 0.401136,-0.08024 0.517578,-0.255859 a 0.13916899,0.13916899 0 0 1 0,-0.002 c 0.118012,-0.176538 0.1875,-0.459321 0.1875,-0.853516 0,-0.402166 -0.06748,-0.691243 -0.177734,-0.863281 -0.108501,-0.169299 -0.259766,-0.246094 -0.513672,-0.246094 z m -0.0039,0.101563 c 0.118229,0 0.235968,0.03912 0.314454,0.126953 0.07665,0.08578 0.11438,0.197866 0.138672,0.335937 0.02447,0.139101 0.0332,0.317084 0.0332,0.544922 0,0.219166 -0.0095,0.395226 -0.03516,0.535156 -0.02448,0.139254 -0.06661,0.253511 -0.142578,0.339844 -0.07623,0.08606 -0.193191,0.132812 -0.314453,0.132812 -0.121,10e-7 -0.239436,-0.04069 -0.318359,-0.126953 a 0.13916899,0.13916899 0 0 1 0,-0.002 c -0.07628,-0.08535 -0.11333,-0.195176 -0.138672,-0.332031 a 0.13916899,0.13916899 0 0 1 0,-0.002 c -0.02417,-0.138682 -0.03516,-0.318523 -0.03516,-0.544922 -10e-7,-0.228313 0.01028,-0.406711 0.0332,-0.542969 0.02439,-0.138648 0.06236,-0.252346 0.140625,-0.33789 0.08013,-0.08741 0.20103,-0.126954 0.324218,-0.126953 z"
         style="stroke-width:0.065;stroke-miterlimit:4;stroke-dasharray:none"
         id="path2168" />
    </g>
  </g>
  <g
     inkscape:groupmode="layer"
     id="layer2"
     inkscape:label="cut-in"
     style="display:inline">
    <path
       id="rect1030"
       style="opacity:0.612;fill:#000000;fill-opacity:0.664175;stroke:#000000;stroke-width:0.2;stroke-linecap:square;stroke-miterlimit:4;stroke-dasharray:none;stroke-opacity:1;paint-order:fill markers stroke"
       d="m 20.920391,97.55198 v 13.35 H 4.6203918 v -13.35 z" />
    <path
       id="rect1047"
       style="opacity:0.612;fill:#000000;fill-opacity:0.664175;stroke:#000000;stroke-width:0.2;stroke-linecap:square;stroke-miterlimit:4;stroke-dasharray:none;stroke-opacity:1;paint-order:fill markers stroke"
       d="m 57.000002,94.351974 v 16.549996 h -15.05 V 94.351974 Z" />
    <path
       id="rect1047-3"
       style="opacity:0.612;fill:#000000;fill-opacity:0.664175;stroke:#000000;stroke-width:0.2;stroke-linecap:square;stroke-miterlimit:4;stroke-dasharray:none;stroke-opacity:1;paint-order:fill markers stroke"
       d="M 39.075001,94.352009 V 110.902 h -15.05 V 94.352009 Z" />
    <path
       id="path1163"
       style="opacity:0.612;fill:#000000;fill-opacity:0.664175;stroke:#000000;stroke-width:0.2;stroke-linecap:square;stroke-miterlimit:4;stroke-dasharray:none;stroke-opacity:1;paint-order:fill markers stroke"
       d="m 76.849997,136.8 a 0.89999998,0.89999998 0 0 1 -0.9,0.9 0.89999998,0.89999998 0 0 1 -0.9,-0.9 0.89999998,0.89999998 0 0 1 0.9,-0.9 0.89999998,0.89999998 0 0 1 0.9,0.9 z" />
    <path
       id="rect1165"
       style="opacity:0.612;fill:#000000;fill-opacity:0.664175;stroke:#000000;stroke-width:0.2;stroke-linecap:square;stroke-miterlimit:4;stroke-dasharray:none;stroke-opacity:1;paint-order:fill markers stroke"
       d="m 79.39,127.35 h 8.9 V 138 h -8.9 z" />
    <path
       sodipodi:nodetypes="ccccccc"
       inkscape:connector-curvature="0"
       id="path825"
       d="m 91.75,131.65 h 15.10005 v 4.44064 L 104.2327,137.55 H 94.367333 L 91.75,136.09064 Z"
       style="display:inline;fill:none;fill-rule:evenodd;stroke:#000000;stroke-width:0.1;stroke-linecap:butt;stroke-linejoin:miter;stroke-miterlimit:4;stroke-dasharray:none;stroke-opacity:1" />
    <path
       id="rect1892"
       style="opacity:0.612;fill:#000000;fill-opacity:0.664175;stroke:#000000;stroke-width:0.2;stroke-linecap:square;stroke-miterlimit:4;stroke-dasharray:none;stroke-opacity:1;paint-order:fill markers stroke"
       d="m 110.575,135 h 13.35 v 3 h -13.35 z" />
    <path
       id="path1163-7"
       style="display:inline;opacity:0.612;fill:#000000;fill-opacity:0.664175;stroke:#000000;stroke-width:0.2;stroke-linecap:square;stroke-miterlimit:4;stroke-dasharray:none;stroke-opacity:1;paint-order:fill markers stroke"
       d="m 76.849997,129.92093 a 0.90000004,0.90000004 0 0 1 -0.9,0.9 0.90000004,0.90000004 0 0 1 -0.9,-0.9 0.90000004,0.90000004 0 0 1 0.9,-0.9 0.90000004,0.90000004 0 0 1 0.9,0.9" />
    <path
       id="rect1892-5"
       style="display:inline;opacity:0.612;fill:#000000;fill-opacity:0.664175;stroke:#000000;stroke-width:0.2;stroke-linecap:square;stroke-miterlimit:4;stroke-dasharray:none;stroke-opacity:1;paint-order:fill markers stroke"
       d="m 76.293198,95.000008 h 7.799999 v 3 h -7.799999 z" />
  </g>
  <g
     inkscape:groupmode="layer"
     id="layer3"
     inkscape:label="cut-out"
     style="display:inline">
    <path
       style="fill:none;stroke:#0000ff;stroke-width:0.2;stroke-linecap:butt;stroke-linejoin:miter"
       id="box7948-lid"
       d="m 158,120.91901 v 2.46471 2.46471 h -2 v 5.32941 h 2 v 2.46471 2.46471 h -2 v 5.32941 h 2 v 2.46471 2.46471 h -2 v 5.32941 h 2 v 2.46471 2.46471 h -2 v 5.32941 h 2 v 2.46471 2.46471 h -2 v 5.32941 h 2 v 2.46471 2.46471 h -2 v 5.32941 h 2 v 2.46471 2.46471 h -2 v 5.32941 h 2 v 2.46471 2.46471 h -2 v 5.3294 h 2 v 2.46472 2.46471 h 2.07 2.07 v 2 h 4.54 v -2 h 2.07 2.07 v 2 h 4.54 v -2 h 2.07 2.07 v -2.46471 -2.46471 h 2 v -5.3294 h -2 v -2.46471 -2.46471 h 2 v -5.32942 h -2 v -2.46471 -2.46471 h 2 v -5.32941 h -2 v -2.46471 -2.46471 h 2 v -5.32941 h -2 v -2.46471 -2.46471 h 2 v -5.32941 h -2 v -2.46471 -2.46471 h 2 v -5.32941 h -2 v -2.46471 -2.46471 h 2 v -5.32941 h -2 v -2.46471 -2.46471 h 2 v -5.32941 h -2 v -2.46471 -2.46471 h -2.07 -2.07 v -2 h -4.54 v 2 h -2.07 -2.07 v -2 h -4.54 v 2 H 160.07 158" />
    <path
       style="fill:none;stroke:#0000ff;stroke-width:0.2;stroke-linecap:butt;stroke-linejoin:miter"
       id="box7948-longside1"
       d="m 154.29415,151.01908 v -2 h -2 -2.66471 -2.66471 v 2 h -4.92941 v -2 h -2.66471 -2.66471 v 2 h -4.92941 v -2 h -2.66471 -2.66471 v 2 h -4.92941 v -2 h -2.66471 -2.66471 v 2 h -4.92941 v -2 h -2.66471 -2.66471 v 2 H 101 v -2 h -2.66471 -2.66471 v 2 h -4.92941 v -2 h -2.66471 -2.66471 v 2 h -4.92941 v -2 h -2.66471 -2.66471 v 2 h -4.92941 v -2 h -2.66471 -2.66471 -2 v 2 2.67727 2.67727 h 2 v 4.95455 h -2 v 2.67727 2.67727 h 2 v 4.95455 h -2 v 2.67727 2.67727 h 2 v 4.95455 h -2 v 2.67727 2.67727 h 2 v 4.95455 h -2 v 2.67727 2.67727 h 2 v 4.95455 h -2 v 2.67727 2.67727 2 h 2 2.66471 2.66471 v -2 h 4.92941 v 2 h 2.66471 2.66471 v -2 h 4.92941 v 2 h 2.66471 2.66471 v -2 h 4.92941 v 2 H 98.33529 101 v -2 h 4.92941 v 2 h 2.66471 2.66471 v -2 h 4.92941 v 2 h 2.66471 2.66471 v -2 h 4.92941 v 2 h 2.66471 2.66471 v -2 h 4.92941 v 2 h 2.66471 2.66471 v -2 h 4.92941 v 2 h 2.66471 2.66471 2 v -2 -2.67727 -2.67727 h -2 v -4.95455 h 2 v -2.67727 -2.67727 h -2 v -4.95455 h 2 v -2.67727 -2.67727 h -2 v -4.95455 h 2 v -2.67727 -2.67727 h -2 v -4.95455 h 2 v -2.67727 -2.67727 h -2 v -4.95455 h 2 v -2.67727 -2.67727" />
    <path
       style="fill:none;stroke:#0000ff;stroke-width:0.2;stroke-linecap:butt;stroke-linejoin:miter"
       id="box7948-base"
       d="m 152.31236,120.519 h -2.46471 -2.46471 v -2 h -5.32941 v 2 h -2.46471 -2.46471 v -2 h -5.32941 v 2 h -2.46471 -2.46471 v -2 h -5.32941 v 2 h -2.46471 -2.46471 v -2 h -5.32941 v 2 h -2.46471 -2.46471 v -2 h -5.32941 v 2 H 98.5535 96.08879 v -2 h -5.32941 v 2 h -2.46471 -2.46471 v -2 h -5.32941 v 2 h -2.46471 -2.46471 v -2 h -5.32941 v 2 H 67.77701 65.3123 v 2.06999 2.07 h -2 v 4.54 h 2 v 2.07 2.07 h -2 v 4.54 h 2 v 2.07 2.07 h 2.46471 2.46471 v 2 h 5.32941 v -2 h 2.46471 2.46471 v 2 h 5.32941 v -2 h 2.46471 2.46471 v 2 h 5.32941 v -2 h 2.46471 2.46471 v 2 h 5.32941 v -2 h 2.46471 2.46471 v 2 h 5.32941 v -2 h 2.46471 2.46471 v 2 h 5.32941 v -2 h 2.46471 2.46471 v 2 h 5.32941 v -2 h 2.46471 2.46471 v 2 h 5.32941 v -2 h 2.46471 2.46471 v -2.07 -2.07 h 2 v -4.54 h -2 v -2.07 -2.07 h 2 V 124.659 h -2 v -2.07001 -2.06999" />
    <path
       style="fill:none;stroke:#0000ff;stroke-width:0.2;stroke-linecap:butt;stroke-linejoin:miter"
       id="box7948-longside2"
       d="m 2.09418,118.519 h -2 v 2 2.66471 2.66471 h 2 v 4.92941 h -2 v 2.66471 2.66471 h 2 v 4.92941 h -2 v 2.66471 2.66471 h 2 v 4.92941 h -2 v 2.66471 2.66471 h 2 v 4.92941 h -2 v 2.66471 2.66471 h 2 v 4.92941 h -2 v 2.66471 2.66472 h 2 v 4.92941 h -2 v 2.66471 2.66471 h 2 v 4.92941 h -2 v 2.66471 2.66471 h 2 v 4.92941 h -2 v 2.66471 2.66471 2 h 2 2.67727 2.67727 v -2 h 4.95455 v 2 h 2.67727 2.67727 v -2 h 4.95455 v 2 h 2.67727 2.67727 v -2 h 4.95455 v 2 h 2.67727 2.67727 v -2 h 4.95455 v 2 h 2.67727 2.67727 v -2 h 4.95455 v 2 h 2.67727 2.67727 2 v -2 -2.66471 -2.66471 h -2 v -4.92941 h 2 v -2.66471 -2.66471 h -2 v -4.92941 h 2 v -2.66471 -2.66471 h -2 v -4.92941 h 2 v -2.66472 -2.66471 h -2 v -4.92941 h 2 v -2.66471 -2.66471 h -2 v -4.92941 h 2 v -2.66471 -2.66471 h -2 v -4.92941 h 2 v -2.66471 -2.66471 h -2 v -4.92941 h 2 v -2.66471 -2.66471 h -2 v -4.92941 h 2 v -2.66471 -2.66471 -2 h -2 -2.67727 -2.67727 v 2 h -4.95455 v -2 h -2.67727 -2.67727 v 2 h -4.95455 v -2 h -2.67727 -2.67727 v 2 H 28.0669 v -2 h -2.67727 -2.67727 v 2 h -4.95455 v -2 h -2.67727 -2.67727 v 2 H 7.44872 v -2 H 4.77145 2.09418" />
    <path
       style="fill:none;stroke:#0000ff;stroke-width:0.2;stroke-linecap:butt;stroke-linejoin:miter"
       id="box7948-endface2"
       d="m 60.59417,93.15901 h -2 -2.47727 -2.47727 v -2 h -5.35455 v 2 h -2.47727 -2.47727 v -2 h -5.35455 v 2 h -2.47727 -2.47727 v -2 H 27.6669 v 2 h -2.47727 -2.47727 v -2 h -5.35455 v 2 h -2.47727 -2.47727 v -2 H 7.04872 v 2 h -2.47727 -2.47727 -2 v 2.27 2.27 h 2 v 4.13999 h -2 v 2.27 2.27 h 2 v 4.14 h -2 v 2.27 2.27 h 2 2.47727 2.47727 v 2 h 5.35455 v -2 h 2.47727 2.47727 v 2 h 5.35455 v -2 h 2.47727 2.47727 v 2 h 5.35455 v -2 h 2.47727 2.47727 v 2 h 5.35455 v -2 h 2.47727 2.47727 v 2 h 5.35455 v -2 h 2.47727 2.47727 2 v -2.27 -2.27 h -2 v -4.14 h 2 v -2.27 -2.27 h -2 v -4.13999 h 2 v -2.27 -2.27" />
    <path
       style="fill:none;stroke:#0000ff;stroke-width:0.2;stroke-linecap:butt;stroke-linejoin:miter"
       id="box7948-endface1"
       d="m 63.3123,115.05899 h 2 2.47727 2.47727 v 2 h 5.35455 v -2 h 2.47727 2.47727 v 2 h 5.35455 v -2 h 2.47727 2.47727 v 2 h 5.35455 v -2 h 2.47727 2.47727 v 2 h 5.35455 v -2 h 2.47727 2.47727 v 2 h 5.35455 v -2 h 2.47727 2.47727 2 v -2.26999 -2.27 h -2 v -4.14 h 2 v -2.27 -2.27 h -2 v -4.13999 h 2 v -2.27 -2.27 h -2 -2.47727 -2.47727 v -2 h -5.35455 v 2 h -2.47727 -2.47727 v -2 h -5.35455 v 2 h -2.47727 -2.47727 v -2 h -5.35455 v 2 h -2.47727 -2.47727 v -2 h -5.35455 v 2 h -2.47727 -2.47727 v -2 h -5.35455 v 2 h -2.47727 -2.47727 -2 v 2.27 2.27 h 2 v 4.13999 h -2 v 2.27 2.27 h 2 v 4.14 h -2 v 2.27 2.26999" />
  </g>
  <g
     inkscape:groupmode="layer"
     id="layer4"
     inkscape:label="align"
     style="display:none">
    <rect
       transform="rotate(90)"
       style="display:inline;opacity:0.612;fill:#00d9d0;fill-opacity:0.305052;stroke:#ff0000;stroke-width:0.2;stroke-linecap:square;stroke-miterlimit:4;stroke-dasharray:none;paint-order:fill markers stroke"
       id="rect1009"
       width="16.549999"
       height="56.299999"
       x="94.281349"
       y="-58.457821" />
    <rect
       style="display:inline;opacity:0.612;fill:#00d9d0;fill-opacity:0.305052;stroke:#ff0000;stroke-width:0.2;stroke-linecap:square;stroke-miterlimit:4;stroke-dasharray:none;paint-order:fill markers stroke"
       id="rect1007"
       width="86.799995"
       height="16.549999"
       x="65.400002"
       y="121.45"
       ry="0"
       rx="0" />
    <rect
       y="-121.70908"
       x="94.281349"
       height="56.299999"
       width="16.549999"
       id="rect1009-6"
       style="display:inline;opacity:0.612;fill:#00d9d0;fill-opacity:0.305052;stroke:#ff0000;stroke-width:0.2;stroke-linecap:square;stroke-miterlimit:4;stroke-dasharray:none;paint-order:fill markers stroke"
       transform="rotate(90)" />
  </g>
</svg>
